<svg width="128" height="48" viewBox="0 0 128 48" fill="none" xmlns="http://www.w3.org/2000/svg">
<rect x="6.5" y="0.5" width="117" height="41" fill="white"/>
<rect x="6.5" y="0.5" width="117" height="41" stroke="black"/>
<g filter="url(#filter0_d_1_559)">
<mask id="path-2-outside-1_1_559" maskUnits="userSpaceOnUse" x="4" y="10" width="120" height="30" fill="black">
<rect fill="white" x="4" y="10" width="120" height="30"/>
<path d="M20.4623 24.975L17.2673 16.62C17.0373 16.05 16.8073 15.33 16.5773 14.46C16.4673 14.89 16.3523 15.29 16.2323 15.66C16.1223 16.03 16.0123 16.36 15.9023 16.65L12.7223 24.975H20.4623ZM26.7773 33H24.3173C24.0373 33 23.8073 32.93 23.6273 32.79C23.4473 32.65 23.3173 32.47 23.2373 32.25L21.3323 27.255H11.8373L9.9323 32.25C9.8623 32.44 9.7323 32.615 9.5423 32.775C9.3523 32.925 9.1223 33 8.8523 33H6.3923L14.9723 11.46H18.1973L26.7773 33ZM31.5529 19.875C31.8829 19.525 32.2279 19.205 32.5879 18.915C32.9479 18.625 33.3279 18.38 33.7279 18.18C34.1379 17.97 34.5729 17.81 35.0329 17.7C35.5029 17.58 36.0029 17.52 36.5329 17.52C37.3729 17.52 38.1079 17.66 38.7379 17.94C39.3779 18.22 39.9129 18.615 40.3429 19.125C40.7729 19.625 41.0979 20.23 41.3179 20.94C41.5379 21.65 41.6479 22.435 41.6479 23.295V33H38.7079V23.295C38.7079 22.205 38.4579 21.36 37.9579 20.76C37.4579 20.15 36.6929 19.845 35.6629 19.845C34.9129 19.845 34.2079 20.025 33.5479 20.385C32.8979 20.735 32.2929 21.215 31.7329 21.825V33H28.8079V17.76H30.5629C30.9729 17.76 31.2279 17.955 31.3279 18.345L31.5529 19.875ZM58.5028 17.76L52.3228 33H49.6828L43.5028 17.76H45.9178C46.1478 17.76 46.3378 17.815 46.4878 17.925C46.6378 18.035 46.7378 18.175 46.7878 18.345L50.4328 27.705C50.5628 28.095 50.6728 28.485 50.7628 28.875C50.8628 29.255 50.9528 29.635 51.0328 30.015C51.1128 29.635 51.2028 29.255 51.3028 28.875C51.4028 28.495 51.5228 28.105 51.6628 27.705L55.3528 18.345C55.4128 18.175 55.5178 18.035 55.6678 17.925C55.8178 17.815 55.9978 17.76 56.2078 17.76H58.5028ZM66.885 17.52C68.005 17.52 69.015 17.705 69.915 18.075C70.825 18.435 71.595 18.96 72.225 19.65C72.865 20.33 73.355 21.155 73.695 22.125C74.035 23.085 74.205 24.165 74.205 25.365C74.205 26.565 74.035 27.65 73.695 28.62C73.355 29.59 72.865 30.415 72.225 31.095C71.595 31.775 70.825 32.3 69.915 32.67C69.015 33.03 68.005 33.21 66.885 33.21C65.755 33.21 64.735 33.03 63.825 32.67C62.925 32.3 62.155 31.775 61.515 31.095C60.875 30.415 60.38 29.59 60.03 28.62C59.69 27.65 59.52 26.565 59.52 25.365C59.52 24.165 59.69 23.085 60.03 22.125C60.38 21.155 60.875 20.33 61.515 19.65C62.155 18.96 62.925 18.435 63.825 18.075C64.735 17.705 65.755 17.52 66.885 17.52ZM66.885 30.93C68.325 30.93 69.4 30.445 70.11 29.475C70.82 28.505 71.175 27.14 71.175 25.38C71.175 23.62 70.82 22.255 70.11 21.285C69.4 20.305 68.325 19.815 66.885 19.815C65.425 19.815 64.335 20.305 63.615 21.285C62.905 22.255 62.55 23.62 62.55 25.38C62.55 27.14 62.905 28.505 63.615 29.475C64.335 30.445 65.425 30.93 66.885 30.93ZM82.7371 25.395C83.2571 25.395 83.7121 25.325 84.1021 25.185C84.5021 25.045 84.8321 24.85 85.0921 24.6C85.3621 24.34 85.5621 24.03 85.6921 23.67C85.8321 23.31 85.9021 22.915 85.9021 22.485C85.9021 21.605 85.6321 20.905 85.0921 20.385C84.5621 19.855 83.7771 19.59 82.7371 19.59C81.7071 19.59 80.9221 19.855 80.3821 20.385C79.8521 20.905 79.5871 21.605 79.5871 22.485C79.5871 22.915 79.6521 23.31 79.7821 23.67C79.9221 24.02 80.1221 24.325 80.3821 24.585C80.6521 24.835 80.9821 25.035 81.3721 25.185C81.7721 25.325 82.2271 25.395 82.7371 25.395ZM87.4021 33.795C87.4021 33.435 87.3021 33.15 87.1021 32.94C86.9021 32.72 86.6271 32.55 86.2771 32.43C85.9371 32.3 85.5371 32.21 85.0771 32.16C84.6171 32.1 84.1321 32.055 83.6221 32.025C83.1221 31.995 82.6071 31.97 82.0771 31.95C81.5471 31.92 81.0371 31.87 80.5471 31.8C80.0271 32.06 79.5971 32.375 79.2571 32.745C78.9271 33.115 78.7621 33.55 78.7621 34.05C78.7621 34.37 78.8421 34.67 79.0021 34.95C79.1721 35.23 79.4271 35.47 79.7671 35.67C80.1171 35.88 80.5521 36.04 81.0721 36.15C81.6021 36.27 82.2321 36.33 82.9621 36.33C83.6821 36.33 84.3171 36.265 84.8671 36.135C85.4171 36.015 85.8771 35.84 86.2471 35.61C86.6271 35.39 86.9121 35.125 87.1021 34.815C87.3021 34.505 87.4021 34.165 87.4021 33.795ZM90.3721 18.33V19.425C90.3721 19.785 90.1471 20.01 89.6971 20.1L88.0621 20.34C88.2021 20.65 88.3121 20.98 88.3921 21.33C88.4721 21.67 88.5121 22.03 88.5121 22.41C88.5121 23.16 88.3671 23.84 88.0771 24.45C87.7871 25.05 87.3871 25.565 86.8771 25.995C86.3671 26.425 85.7571 26.755 85.0471 26.985C84.3471 27.215 83.5771 27.33 82.7371 27.33C82.0471 27.33 81.4021 27.255 80.8021 27.105C80.5021 27.285 80.2721 27.485 80.1121 27.705C79.9621 27.915 79.8871 28.125 79.8871 28.335C79.8871 28.685 80.0321 28.945 80.3221 29.115C80.6221 29.285 81.0071 29.41 81.4771 29.49C81.9571 29.56 82.5021 29.605 83.1121 29.625C83.7321 29.645 84.3571 29.68 84.9871 29.73C85.6271 29.77 86.2521 29.85 86.8621 29.97C87.4821 30.08 88.0271 30.265 88.4971 30.525C88.9771 30.775 89.3621 31.125 89.6521 31.575C89.9521 32.015 90.1021 32.59 90.1021 33.3C90.1021 33.96 89.9371 34.6 89.6071 35.22C89.2871 35.84 88.8171 36.39 88.1971 36.87C87.5771 37.35 86.8221 37.735 85.9321 38.025C85.0421 38.315 84.0321 38.46 82.9021 38.46C81.7721 38.46 80.7871 38.35 79.9471 38.13C79.1171 37.91 78.4221 37.615 77.8621 37.245C77.3121 36.875 76.8971 36.445 76.6171 35.955C76.3471 35.465 76.2121 34.955 76.2121 34.425C76.2121 33.685 76.4421 33.06 76.9021 32.55C77.3621 32.03 77.9971 31.625 78.8071 31.335C78.3671 31.135 78.0171 30.865 77.7571 30.525C77.4971 30.175 77.3671 29.715 77.3671 29.145C77.3671 28.925 77.4071 28.7 77.4871 28.47C77.5671 28.23 77.6871 27.995 77.8471 27.765C78.0171 27.525 78.2221 27.3 78.4621 27.09C78.7121 26.88 78.9971 26.69 79.3171 26.52C78.5671 26.1 77.9771 25.545 77.5471 24.855C77.1171 24.155 76.9021 23.34 76.9021 22.41C76.9021 21.66 77.0471 20.985 77.3371 20.385C77.6271 19.785 78.0271 19.27 78.5371 18.84C79.0571 18.41 79.6721 18.08 80.3821 17.85C81.1021 17.62 81.8871 17.505 82.7371 17.505C84.0571 17.505 85.1921 17.78 86.1421 18.33H90.3721ZM105.731 17.76V33H103.976C103.576 33 103.316 32.805 103.196 32.415L102.986 30.885C102.656 31.235 102.311 31.555 101.951 31.845C101.591 32.135 101.206 32.385 100.796 32.595C100.386 32.795 99.951 32.95 99.491 33.06C99.031 33.18 98.536 33.24 98.006 33.24C97.166 33.24 96.426 33.1 95.786 32.82C95.156 32.54 94.626 32.15 94.196 31.65C93.766 31.14 93.441 30.53 93.221 29.82C93.001 29.11 92.891 28.325 92.891 27.465V17.76H95.831V27.465C95.831 28.555 96.081 29.405 96.581 30.015C97.081 30.615 97.846 30.915 98.876 30.915C99.626 30.915 100.326 30.74 100.976 30.39C101.626 30.03 102.236 29.54 102.806 28.92V17.76H105.731ZM119.909 23.685C119.909 23.105 119.824 22.57 119.654 22.08C119.494 21.59 119.254 21.165 118.934 20.805C118.614 20.445 118.224 20.165 117.764 19.965C117.304 19.765 116.774 19.665 116.174 19.665C114.944 19.665 113.974 20.02 113.264 20.73C112.564 21.44 112.119 22.425 111.929 23.685H119.909ZM122.324 30.825C121.964 31.245 121.549 31.61 121.079 31.92C120.609 32.22 120.109 32.465 119.579 32.655C119.049 32.845 118.499 32.985 117.929 33.075C117.369 33.165 116.814 33.21 116.264 33.21C115.214 33.21 114.239 33.035 113.339 32.685C112.449 32.325 111.674 31.805 111.014 31.125C110.364 30.435 109.854 29.585 109.484 28.575C109.124 27.555 108.944 26.385 108.944 25.065C108.944 24.005 109.109 23.02 109.439 22.11C109.769 21.19 110.239 20.39 110.849 19.71C111.469 19.03 112.224 18.495 113.114 18.105C114.004 17.715 115.004 17.52 116.114 17.52C117.044 17.52 117.899 17.675 118.679 17.985C119.469 18.285 120.149 18.725 120.719 19.305C121.289 19.885 121.734 20.6 122.054 21.45C122.384 22.3 122.549 23.27 122.549 24.36C122.549 24.81 122.499 25.115 122.399 25.275C122.299 25.425 122.114 25.5 121.844 25.5H111.854C111.884 26.41 112.014 27.205 112.244 27.885C112.474 28.555 112.789 29.115 113.189 29.565C113.599 30.015 114.084 30.35 114.644 30.57C115.204 30.79 115.829 30.9 116.519 30.9C117.169 30.9 117.729 30.825 118.199 30.675C118.679 30.525 119.089 30.365 119.429 30.195C119.779 30.015 120.069 29.85 120.299 29.7C120.539 29.55 120.749 29.475 120.929 29.475C121.169 29.475 121.354 29.565 121.484 29.745L122.324 30.825Z"/>
</mask>
<path d="M20.4623 24.975L17.2673 16.62C17.0373 16.05 16.8073 15.33 16.5773 14.46C16.4673 14.89 16.3523 15.29 16.2323 15.66C16.1223 16.03 16.0123 16.36 15.9023 16.65L12.7223 24.975H20.4623ZM26.7773 33H24.3173C24.0373 33 23.8073 32.93 23.6273 32.79C23.4473 32.65 23.3173 32.47 23.2373 32.25L21.3323 27.255H11.8373L9.9323 32.25C9.8623 32.44 9.7323 32.615 9.5423 32.775C9.3523 32.925 9.1223 33 8.8523 33H6.3923L14.9723 11.46H18.1973L26.7773 33ZM31.5529 19.875C31.8829 19.525 32.2279 19.205 32.5879 18.915C32.9479 18.625 33.3279 18.38 33.7279 18.18C34.1379 17.97 34.5729 17.81 35.0329 17.7C35.5029 17.58 36.0029 17.52 36.5329 17.52C37.3729 17.52 38.1079 17.66 38.7379 17.94C39.3779 18.22 39.9129 18.615 40.3429 19.125C40.7729 19.625 41.0979 20.23 41.3179 20.94C41.5379 21.65 41.6479 22.435 41.6479 23.295V33H38.7079V23.295C38.7079 22.205 38.4579 21.36 37.9579 20.76C37.4579 20.15 36.6929 19.845 35.6629 19.845C34.9129 19.845 34.2079 20.025 33.5479 20.385C32.8979 20.735 32.2929 21.215 31.7329 21.825V33H28.8079V17.76H30.5629C30.9729 17.76 31.2279 17.955 31.3279 18.345L31.5529 19.875ZM58.5028 17.76L52.3228 33H49.6828L43.5028 17.76H45.9178C46.1478 17.76 46.3378 17.815 46.4878 17.925C46.6378 18.035 46.7378 18.175 46.7878 18.345L50.4328 27.705C50.5628 28.095 50.6728 28.485 50.7628 28.875C50.8628 29.255 50.9528 29.635 51.0328 30.015C51.1128 29.635 51.2028 29.255 51.3028 28.875C51.4028 28.495 51.5228 28.105 51.6628 27.705L55.3528 18.345C55.4128 18.175 55.5178 18.035 55.6678 17.925C55.8178 17.815 55.9978 17.76 56.2078 17.76H58.5028ZM66.885 17.52C68.005 17.52 69.015 17.705 69.915 18.075C70.825 18.435 71.595 18.96 72.225 19.65C72.865 20.33 73.355 21.155 73.695 22.125C74.035 23.085 74.205 24.165 74.205 25.365C74.205 26.565 74.035 27.65 73.695 28.62C73.355 29.59 72.865 30.415 72.225 31.095C71.595 31.775 70.825 32.3 69.915 32.67C69.015 33.03 68.005 33.21 66.885 33.21C65.755 33.21 64.735 33.03 63.825 32.67C62.925 32.3 62.155 31.775 61.515 31.095C60.875 30.415 60.38 29.59 60.03 28.62C59.69 27.65 59.52 26.565 59.52 25.365C59.52 24.165 59.69 23.085 60.03 22.125C60.38 21.155 60.875 20.33 61.515 19.65C62.155 18.96 62.925 18.435 63.825 18.075C64.735 17.705 65.755 17.52 66.885 17.52ZM66.885 30.93C68.325 30.93 69.4 30.445 70.11 29.475C70.82 28.505 71.175 27.14 71.175 25.38C71.175 23.62 70.82 22.255 70.11 21.285C69.4 20.305 68.325 19.815 66.885 19.815C65.425 19.815 64.335 20.305 63.615 21.285C62.905 22.255 62.55 23.62 62.55 25.38C62.55 27.14 62.905 28.505 63.615 29.475C64.335 30.445 65.425 30.93 66.885 30.93ZM82.7371 25.395C83.2571 25.395 83.7121 25.325 84.1021 25.185C84.5021 25.045 84.8321 24.85 85.0921 24.6C85.3621 24.34 85.5621 24.03 85.6921 23.67C85.8321 23.31 85.9021 22.915 85.9021 22.485C85.9021 21.605 85.6321 20.905 85.0921 20.385C84.5621 19.855 83.7771 19.59 82.7371 19.59C81.7071 19.59 80.9221 19.855 80.3821 20.385C79.8521 20.905 79.5871 21.605 79.5871 22.485C79.5871 22.915 79.6521 23.31 79.7821 23.67C79.9221 24.02 80.1221 24.325 80.3821 24.585C80.6521 24.835 80.9821 25.035 81.3721 25.185C81.7721 25.325 82.2271 25.395 82.7371 25.395ZM87.4021 33.795C87.4021 33.435 87.3021 33.15 87.1021 32.94C86.9021 32.72 86.6271 32.55 86.2771 32.43C85.9371 32.3 85.5371 32.21 85.0771 32.16C84.6171 32.1 84.1321 32.055 83.6221 32.025C83.1221 31.995 82.6071 31.97 82.0771 31.95C81.5471 31.92 81.0371 31.87 80.5471 31.8C80.0271 32.06 79.5971 32.375 79.2571 32.745C78.9271 33.115 78.7621 33.55 78.7621 34.05C78.7621 34.37 78.8421 34.67 79.0021 34.95C79.1721 35.23 79.4271 35.47 79.7671 35.67C80.1171 35.88 80.5521 36.04 81.0721 36.15C81.6021 36.27 82.2321 36.33 82.9621 36.33C83.6821 36.33 84.3171 36.265 84.8671 36.135C85.4171 36.015 85.8771 35.84 86.2471 35.61C86.6271 35.39 86.9121 35.125 87.1021 34.815C87.3021 34.505 87.4021 34.165 87.4021 33.795ZM90.3721 18.33V19.425C90.3721 19.785 90.1471 20.01 89.6971 20.1L88.0621 20.34C88.2021 20.65 88.3121 20.98 88.3921 21.33C88.4721 21.67 88.5121 22.03 88.5121 22.41C88.5121 23.16 88.3671 23.84 88.0771 24.45C87.7871 25.05 87.3871 25.565 86.8771 25.995C86.3671 26.425 85.7571 26.755 85.0471 26.985C84.3471 27.215 83.5771 27.33 82.7371 27.33C82.0471 27.33 81.4021 27.255 80.8021 27.105C80.5021 27.285 80.2721 27.485 80.1121 27.705C79.9621 27.915 79.8871 28.125 79.8871 28.335C79.8871 28.685 80.0321 28.945 80.3221 29.115C80.6221 29.285 81.0071 29.41 81.4771 29.49C81.9571 29.56 82.5021 29.605 83.1121 29.625C83.7321 29.645 84.3571 29.68 84.9871 29.73C85.6271 29.77 86.2521 29.85 86.8621 29.97C87.4821 30.08 88.0271 30.265 88.4971 30.525C88.9771 30.775 89.3621 31.125 89.6521 31.575C89.9521 32.015 90.1021 32.59 90.1021 33.3C90.1021 33.96 89.9371 34.6 89.6071 35.22C89.2871 35.84 88.8171 36.39 88.1971 36.87C87.5771 37.35 86.8221 37.735 85.9321 38.025C85.0421 38.315 84.0321 38.46 82.9021 38.46C81.7721 38.46 80.7871 38.35 79.9471 38.13C79.1171 37.91 78.4221 37.615 77.8621 37.245C77.3121 36.875 76.8971 36.445 76.6171 35.955C76.3471 35.465 76.2121 34.955 76.2121 34.425C76.2121 33.685 76.4421 33.06 76.9021 32.55C77.3621 32.03 77.9971 31.625 78.8071 31.335C78.3671 31.135 78.0171 30.865 77.7571 30.525C77.4971 30.175 77.3671 29.715 77.3671 29.145C77.3671 28.925 77.4071 28.7 77.4871 28.47C77.5671 28.23 77.6871 27.995 77.8471 27.765C78.0171 27.525 78.2221 27.3 78.4621 27.09C78.7121 26.88 78.9971 26.69 79.3171 26.52C78.5671 26.1 77.9771 25.545 77.5471 24.855C77.1171 24.155 76.9021 23.34 76.9021 22.41C76.9021 21.66 77.0471 20.985 77.3371 20.385C77.6271 19.785 78.0271 19.27 78.5371 18.84C79.0571 18.41 79.6721 18.08 80.3821 17.85C81.1021 17.62 81.8871 17.505 82.7371 17.505C84.0571 17.505 85.1921 17.78 86.1421 18.33H90.3721ZM105.731 17.76V33H103.976C103.576 33 103.316 32.805 103.196 32.415L102.986 30.885C102.656 31.235 102.311 31.555 101.951 31.845C101.591 32.135 101.206 32.385 100.796 32.595C100.386 32.795 99.951 32.95 99.491 33.06C99.031 33.18 98.536 33.24 98.006 33.24C97.166 33.24 96.426 33.1 95.786 32.82C95.156 32.54 94.626 32.15 94.196 31.65C93.766 31.14 93.441 30.53 93.221 29.82C93.001 29.11 92.891 28.325 92.891 27.465V17.76H95.831V27.465C95.831 28.555 96.081 29.405 96.581 30.015C97.081 30.615 97.846 30.915 98.876 30.915C99.626 30.915 100.326 30.74 100.976 30.39C101.626 30.03 102.236 29.54 102.806 28.92V17.76H105.731ZM119.909 23.685C119.909 23.105 119.824 22.57 119.654 22.08C119.494 21.59 119.254 21.165 118.934 20.805C118.614 20.445 118.224 20.165 117.764 19.965C117.304 19.765 116.774 19.665 116.174 19.665C114.944 19.665 113.974 20.02 113.264 20.73C112.564 21.44 112.119 22.425 111.929 23.685H119.909ZM122.324 30.825C121.964 31.245 121.549 31.61 121.079 31.92C120.609 32.22 120.109 32.465 119.579 32.655C119.049 32.845 118.499 32.985 117.929 33.075C117.369 33.165 116.814 33.21 116.264 33.21C115.214 33.21 114.239 33.035 113.339 32.685C112.449 32.325 111.674 31.805 111.014 31.125C110.364 30.435 109.854 29.585 109.484 28.575C109.124 27.555 108.944 26.385 108.944 25.065C108.944 24.005 109.109 23.02 109.439 22.11C109.769 21.19 110.239 20.39 110.849 19.71C111.469 19.03 112.224 18.495 113.114 18.105C114.004 17.715 115.004 17.52 116.114 17.52C117.044 17.52 117.899 17.675 118.679 17.985C119.469 18.285 120.149 18.725 120.719 19.305C121.289 19.885 121.734 20.6 122.054 21.45C122.384 22.3 122.549 23.27 122.549 24.36C122.549 24.81 122.499 25.115 122.399 25.275C122.299 25.425 122.114 25.5 121.844 25.5H111.854C111.884 26.41 112.014 27.205 112.244 27.885C112.474 28.555 112.789 29.115 113.189 29.565C113.599 30.015 114.084 30.35 114.644 30.57C115.204 30.79 115.829 30.9 116.519 30.9C117.169 30.9 117.729 30.825 118.199 30.675C118.679 30.525 119.089 30.365 119.429 30.195C119.779 30.015 120.069 29.85 120.299 29.7C120.539 29.55 120.749 29.475 120.929 29.475C121.169 29.475 121.354 29.565 121.484 29.745L122.324 30.825Z" fill="#1F1F1F"/>
<path d="M20.4623 24.975V25.975H21.9153L21.3963 24.6178L20.4623 24.975ZM17.2673 16.62L18.2013 16.2628L18.1981 16.2543L18.1947 16.2458L17.2673 16.62ZM16.5773 14.46L17.5441 14.2044L16.5614 10.4872L15.6085 14.2122L16.5773 14.46ZM16.2323 15.66L15.2811 15.3515L15.2773 15.3632L15.2738 15.375L16.2323 15.66ZM15.9023 16.65L16.8365 17.0068L16.8373 17.0047L15.9023 16.65ZM12.7223 24.975L11.7881 24.6182L11.2699 25.975H12.7223V24.975ZM26.7773 33V34H28.252L27.7063 32.6299L26.7773 33ZM23.2373 32.25L24.1771 31.9083L24.1744 31.9009L24.1717 31.8937L23.2373 32.25ZM21.3323 27.255L22.2667 26.8987L22.0212 26.255H21.3323V27.255ZM11.8373 27.255V26.255H11.1484L10.903 26.8987L11.8373 27.255ZM9.9323 32.25L8.99789 31.8936L8.99396 31.9043L9.9323 32.25ZM9.5423 32.775L10.1619 33.5599L10.1744 33.5501L10.1864 33.5399L9.5423 32.775ZM6.3923 33L5.46329 32.6299L4.91756 34H6.3923V33ZM14.9723 11.46V10.46H14.2942L14.0433 11.0899L14.9723 11.46ZM18.1973 11.46L19.1263 11.0899L18.8754 10.46H18.1973V11.46ZM21.3963 24.6178L18.2013 16.2628L16.3333 16.9772L19.5283 25.3322L21.3963 24.6178ZM18.1947 16.2458C17.9856 15.7277 17.7678 15.0508 17.5441 14.2044L15.6105 14.7156C15.8468 15.6092 16.089 16.3723 16.34 16.9942L18.1947 16.2458ZM15.6085 14.2122C15.503 14.6245 15.3938 15.0041 15.2811 15.3515L17.1835 15.9685C17.3109 15.5759 17.4316 15.1555 17.5461 14.7078L15.6085 14.2122ZM15.2738 15.375C15.1692 15.7269 15.0668 16.033 14.9673 16.2953L16.8373 17.0047C16.9578 16.687 17.0755 16.3331 17.1908 15.945L15.2738 15.375ZM14.9681 16.2932L11.7881 24.6182L13.6565 25.3318L16.8365 17.0068L14.9681 16.2932ZM12.7223 25.975H20.4623V23.975H12.7223V25.975ZM26.7773 32H24.3173V34H26.7773V32ZM24.3173 32C24.2601 32 24.2325 31.9928 24.226 31.9908C24.2215 31.9895 24.2296 31.9916 24.2412 32.0006L23.0134 33.5794C23.4059 33.8847 23.8669 34 24.3173 34V32ZM24.2412 32.0006C24.2139 31.9794 24.1946 31.9563 24.1771 31.9083L22.2975 32.5917C22.44 32.9837 22.6807 33.3206 23.0134 33.5794L24.2412 32.0006ZM24.1717 31.8937L22.2667 26.8987L20.398 27.6113L22.3029 32.6063L24.1717 31.8937ZM21.3323 26.255H11.8373V28.255H21.3323V26.255ZM10.903 26.8987L8.99795 31.8937L10.8667 32.6063L12.7717 27.6113L10.903 26.8987ZM8.99396 31.9043C8.99396 31.9043 8.99395 31.9043 8.99394 31.9044C8.99392 31.9044 8.9939 31.9045 8.99386 31.9045C8.99379 31.9047 8.99368 31.905 8.9935 31.9054C8.99316 31.9061 8.99256 31.9074 8.99158 31.9092C8.98965 31.9127 8.98598 31.9188 8.97956 31.9274C8.96661 31.9449 8.942 31.9732 8.89817 32.0101L10.1864 33.5399C10.4793 33.2933 10.7284 32.9817 10.8706 32.5957L8.99396 31.9043ZM8.92266 31.9901C8.92021 31.992 8.92003 31.9921 8.91728 31.993C8.91327 31.9943 8.89411 32 8.8523 32V34C9.31972 34 9.77506 33.8653 10.1619 33.5599L8.92266 31.9901ZM8.8523 32H6.3923V34H8.8523V32ZM7.32132 33.3701L15.9013 11.8301L14.0433 11.0899L5.46329 32.6299L7.32132 33.3701ZM14.9723 12.46H18.1973V10.46H14.9723V12.46ZM17.2683 11.8301L25.8483 33.3701L27.7063 32.6299L19.1263 11.0899L17.2683 11.8301ZM31.5529 19.875L30.5636 20.0205L30.864 22.0634L32.2805 20.561L31.5529 19.875ZM32.5879 18.915L31.9606 18.1362L32.5879 18.915ZM33.7279 18.18L34.1752 19.0745L34.1838 19.07L33.7279 18.18ZM35.0329 17.7L35.2655 18.6726L35.2729 18.6708L35.2803 18.6689L35.0329 17.7ZM38.7379 17.94L38.3318 18.8538L38.3371 18.8562L38.7379 17.94ZM40.3429 19.125L39.5784 19.7696L39.5847 19.777L40.3429 19.125ZM41.3179 20.94L42.2731 20.644L41.3179 20.94ZM41.6479 33V34H42.6479V33H41.6479ZM38.7079 33H37.7079V34H38.7079V33ZM37.9579 20.76L37.1845 21.3939L37.1897 21.4002L37.9579 20.76ZM33.5479 20.385L34.022 21.2655L34.0268 21.2629L33.5479 20.385ZM31.7329 21.825L30.9963 21.1487L30.7329 21.4356V21.825H31.7329ZM31.7329 33V34H32.7329V33H31.7329ZM28.8079 33H27.8079V34H28.8079V33ZM28.8079 17.76V16.76H27.8079V17.76H28.8079ZM31.3279 18.345L32.3173 18.1995L32.3096 18.1475L32.2966 18.0966L31.3279 18.345ZM32.2805 20.561C32.5805 20.2428 32.8922 19.954 33.2153 19.6938L31.9606 18.1362C31.5637 18.456 31.1853 18.8072 30.8253 19.189L32.2805 20.561ZM33.2153 19.6938C33.5214 19.4471 33.8413 19.2414 34.1751 19.0744L33.2807 17.2856C32.8146 17.5186 32.3745 17.8029 31.9606 18.1362L33.2153 19.6938ZM34.1838 19.07C34.521 18.8973 34.8809 18.7646 35.2655 18.6726L34.8004 16.7274C34.265 16.8554 33.7548 17.0427 33.2721 17.29L34.1838 19.07ZM35.2803 18.6689C35.6624 18.5714 36.0787 18.52 36.5329 18.52V16.52C35.9271 16.52 35.3435 16.5886 34.7855 16.7311L35.2803 18.6689ZM36.5329 18.52C37.2629 18.52 37.8544 18.6416 38.3318 18.8538L39.1441 17.0262C38.3615 16.6784 37.483 16.52 36.5329 16.52V18.52ZM38.3371 18.8562C38.8435 19.0777 39.2519 19.3824 39.5784 19.7696L41.1075 18.4804C40.5739 17.8476 39.9124 17.3623 39.1387 17.0238L38.3371 18.8562ZM39.5847 19.777C39.9147 20.1607 40.1782 20.6403 40.3627 21.236L42.2731 20.644C42.0177 19.8197 41.6312 19.0893 41.1011 18.473L39.5847 19.777ZM40.3627 21.236C40.5488 21.8364 40.6479 22.5199 40.6479 23.295H42.6479C42.6479 22.35 42.5271 21.4636 42.2731 20.644L40.3627 21.236ZM40.6479 23.295V33H42.6479V23.295H40.6479ZM41.6479 32H38.7079V34H41.6479V32ZM39.7079 33V23.295H37.7079V33H39.7079ZM39.7079 23.295C39.7079 22.0627 39.4256 20.9592 38.7262 20.1198L37.1897 21.4002C37.4902 21.7608 37.7079 22.3473 37.7079 23.295H39.7079ZM38.7313 20.1261C37.9867 19.2176 36.894 18.845 35.6629 18.845V20.845C36.4919 20.845 36.9292 21.0824 37.1845 21.3939L38.7313 20.1261ZM35.6629 18.845C34.7452 18.845 33.8756 19.0672 33.0691 19.5071L34.0268 21.2629C34.5403 20.9828 35.0807 20.845 35.6629 20.845V18.845ZM33.0738 19.5045C32.3143 19.9135 31.6227 20.4664 30.9963 21.1487L32.4696 22.5013C32.9632 21.9636 33.4815 21.5565 34.022 21.2655L33.0738 19.5045ZM30.7329 21.825V33H32.7329V21.825H30.7329ZM31.7329 32H28.8079V34H31.7329V32ZM29.8079 33V17.76H27.8079V33H29.8079ZM28.8079 18.76H30.5629V16.76H28.8079V18.76ZM30.5629 18.76C30.6098 18.76 30.5444 18.7696 30.4542 18.7006C30.4127 18.6688 30.3849 18.6341 30.369 18.6078C30.3543 18.5836 30.3545 18.5748 30.3593 18.5934L32.2966 18.0966C32.2053 17.7406 32.0162 17.3773 31.6691 17.1119C31.324 16.8479 30.926 16.76 30.5629 16.76V18.76ZM30.3386 18.4905L30.5636 20.0205L32.5423 19.7295L32.3173 18.1995L30.3386 18.4905ZM58.5028 17.76L59.4295 18.1358L59.9874 16.76H58.5028V17.76ZM52.3228 33V34H52.9964L53.2495 33.3758L52.3228 33ZM49.6828 33L48.7561 33.3758L49.0092 34H49.6828V33ZM43.5028 17.76V16.76H42.0182L42.5761 18.1358L43.5028 17.76ZM46.4878 17.925L45.8964 18.7314L45.8964 18.7314L46.4878 17.925ZM46.7878 18.345L45.8284 18.6272L45.8405 18.6681L45.8559 18.7079L46.7878 18.345ZM50.4328 27.705L51.3815 27.3888L51.3736 27.3652L51.3646 27.3421L50.4328 27.705ZM50.7628 28.875L49.7884 29.0999L49.7918 29.1147L49.7957 29.1295L50.7628 28.875ZM51.0328 30.015L50.0542 30.221H52.0113L51.0328 30.015ZM51.3028 28.875L52.2698 29.1295L51.3028 28.875ZM51.6628 27.705L50.7325 27.3382L50.7253 27.3563L50.7189 27.3746L51.6628 27.705ZM55.3528 18.345L56.2831 18.7118L56.2897 18.6949L56.2958 18.6778L55.3528 18.345ZM55.6678 17.925L56.2591 18.7314L56.2591 18.7314L55.6678 17.925ZM57.5761 17.3842L51.3961 32.6242L53.2495 33.3758L59.4295 18.1358L57.5761 17.3842ZM52.3228 32H49.6828V34H52.3228V32ZM50.6095 32.6242L44.4295 17.3842L42.5761 18.1358L48.7561 33.3758L50.6095 32.6242ZM43.5028 18.76H45.9178V16.76H43.5028V18.76ZM45.9178 18.76C45.9536 18.76 45.9634 18.7643 45.9547 18.7618C45.9503 18.7605 45.942 18.7577 45.9312 18.7525C45.9202 18.7472 45.9083 18.7402 45.8964 18.7314L47.0791 17.1186C46.7206 16.8556 46.3094 16.76 45.9178 16.76V18.76ZM45.8964 18.7314C45.8927 18.7287 45.8781 18.7169 45.8615 18.6937C45.8447 18.6702 45.834 18.646 45.8284 18.6272L47.7471 18.0628C47.632 17.6715 47.3965 17.3514 47.0791 17.1186L45.8964 18.7314ZM45.8559 18.7079L49.5009 28.0679L51.3646 27.3421L47.7196 17.9821L45.8559 18.7079ZM49.4841 28.0212C49.6044 28.382 49.7057 28.7415 49.7884 29.0999L51.7372 28.6501C51.6399 28.2285 51.5212 27.808 51.3815 27.3888L49.4841 28.0212ZM49.7957 29.1295C49.8915 29.4936 49.9777 29.8575 50.0542 30.221L52.0113 29.809C51.9279 29.4125 51.834 29.0164 51.7298 28.6205L49.7957 29.1295ZM52.0113 30.221C52.0879 29.8575 52.174 29.4936 52.2698 29.1295L50.3357 28.6205C50.2315 29.0164 50.1377 29.4125 50.0542 29.809L52.0113 30.221ZM52.2698 29.1295C52.3626 28.777 52.4747 28.4123 52.6066 28.0354L50.7189 27.3746C50.5709 27.7977 50.4429 28.213 50.3357 28.6205L52.2698 29.1295ZM52.5931 28.0718L56.2831 18.7118L54.4225 17.9782L50.7325 27.3382L52.5931 28.0718ZM56.2958 18.6778C56.293 18.6857 56.2868 18.6988 56.2765 18.7125C56.2664 18.726 56.2585 18.7319 56.2591 18.7314L55.0764 17.1186C54.7697 17.3435 54.5389 17.6462 54.4098 18.0122L56.2958 18.6778ZM56.2591 18.7314C56.2515 18.737 56.2427 18.7424 56.2331 18.7472C56.2235 18.752 56.2147 18.7554 56.2075 18.7576C56.1925 18.7622 56.1905 18.76 56.2078 18.76V16.76C55.8137 16.76 55.4197 16.8669 55.0764 17.1186L56.2591 18.7314ZM56.2078 18.76H58.5028V16.76H56.2078V18.76ZM69.915 18.075L69.5347 19L69.5471 19.0049L69.915 18.075ZM72.225 19.65L71.4865 20.3243L71.4916 20.3299L71.4968 20.3354L72.225 19.65ZM73.695 22.125L72.7513 22.4558L72.7523 22.4588L73.695 22.125ZM73.695 28.62L72.7513 28.2892L72.7513 28.2892L73.695 28.62ZM72.225 31.095L71.4967 30.4096L71.4914 30.4154L72.225 31.095ZM69.915 32.67L70.2864 33.5985L70.2916 33.5964L69.915 32.67ZM63.825 32.67L63.4447 33.595L63.4571 33.5999L63.825 32.67ZM61.515 31.095L60.7868 31.7804L61.515 31.095ZM60.03 28.62L59.0862 28.9508L59.0893 28.9594L60.03 28.62ZM60.03 22.125L59.0893 21.7856L59.0873 21.7912L60.03 22.125ZM61.515 19.65L62.2432 20.3354L62.2481 20.33L61.515 19.65ZM63.825 18.075L64.1964 19.0035L64.2016 19.0014L63.825 18.075ZM70.11 29.475L69.303 28.8844L70.11 29.475ZM70.11 21.285L69.3001 21.8717L69.303 21.8756L70.11 21.285ZM63.615 21.285L62.8091 20.6929L62.808 20.6944L63.615 21.285ZM63.615 29.475L62.808 30.0657L62.812 30.071L63.615 29.475ZM66.885 18.52C67.894 18.52 68.7722 18.6864 69.5347 18.9999L70.2952 17.1501C69.2577 16.7236 68.1159 16.52 66.885 16.52V18.52ZM69.5471 19.0049C70.3226 19.3117 70.9639 19.7519 71.4865 20.3243L72.9634 18.9757C72.2261 18.1681 71.3273 17.5583 70.2828 17.1451L69.5471 19.0049ZM71.4968 20.3354C72.0317 20.9037 72.4528 21.6044 72.7513 22.4558L74.6387 21.7942C74.2571 20.7056 73.6983 19.7563 72.9532 18.9646L71.4968 20.3354ZM72.7523 22.4588C73.0483 23.2944 73.205 24.2589 73.205 25.365H75.205C75.205 24.0711 75.0217 22.8756 74.6376 21.7912L72.7523 22.4588ZM73.205 25.365C73.205 26.4708 73.0483 27.4417 72.7513 28.2892L74.6387 28.9508C75.0216 27.8583 75.205 26.6592 75.205 25.365H73.205ZM72.7513 28.2892C72.4528 29.1406 72.0317 29.8413 71.4968 30.4096L72.9532 31.7804C73.6983 30.9887 74.2571 30.0394 74.6387 28.9508L72.7513 28.2892ZM71.4914 30.4154C70.9668 30.9816 70.321 31.4254 69.5383 31.7436L70.2916 33.5964C71.3289 33.1746 72.2232 32.5684 72.9585 31.7746L71.4914 30.4154ZM69.5436 31.7415C68.7786 32.0475 67.8973 32.21 66.885 32.21V34.21C68.1126 34.21 69.2514 34.0125 70.2864 33.5985L69.5436 31.7415ZM66.885 32.21C65.8617 32.21 64.9691 32.0472 64.1928 31.7401L63.4571 33.5999C64.5009 34.0128 65.6483 34.21 66.885 34.21V32.21ZM64.2052 31.7451C63.4312 31.4269 62.7814 30.9816 62.2432 30.4096L60.7868 31.7804C61.5285 32.5685 62.4187 33.1731 63.4447 33.5949L64.2052 31.7451ZM62.2432 30.4096C61.7062 29.8392 61.2791 29.1354 60.9706 28.2806L59.0893 28.9594C59.4809 30.0445 60.0437 30.9908 60.7868 31.7804L62.2432 30.4096ZM60.9737 28.2892C60.6766 27.4417 60.52 26.4708 60.52 25.365H58.52C58.52 26.6592 58.7033 27.8583 59.0863 28.9508L60.9737 28.2892ZM60.52 25.365C60.52 24.2589 60.6767 23.2944 60.9726 22.4588L59.0873 21.7912C58.7033 22.8756 58.52 24.0711 58.52 25.365H60.52ZM60.9706 22.4644C61.2791 21.6096 61.7062 20.9058 62.2432 20.3354L60.7868 18.9646C60.0437 19.7542 59.4809 20.7004 59.0893 21.7856L60.9706 22.4644ZM62.2481 20.33C62.7844 19.7519 63.4296 19.3102 64.1964 19.0035L63.4536 17.1465C62.4203 17.5598 61.5256 18.1681 60.7818 18.97L62.2481 20.33ZM64.2016 19.0014C64.9754 18.6867 65.8649 18.52 66.885 18.52V16.52C65.6451 16.52 64.4945 16.7233 63.4483 17.1486L64.2016 19.0014ZM66.885 31.93C68.5725 31.93 69.9801 31.3455 70.9169 30.0656L69.303 28.8844C68.8198 29.5445 68.0774 29.93 66.885 29.93V31.93ZM70.9169 30.0656C71.7985 28.8612 72.175 27.2581 72.175 25.38H70.175C70.175 27.0219 69.8415 28.1488 69.303 28.8844L70.9169 30.0656ZM72.175 25.38C72.175 23.5019 71.7985 21.8988 70.9169 20.6944L69.303 21.8756C69.8415 22.6112 70.175 23.7381 70.175 25.38H72.175ZM70.9198 20.6983C69.9845 19.4074 68.5765 18.815 66.885 18.815V20.815C68.0734 20.815 68.8154 21.2026 69.3002 21.8717L70.9198 20.6983ZM66.885 18.815C65.1787 18.815 63.7564 19.4035 62.8091 20.6929L64.4208 21.8771C64.9135 21.2065 65.6712 20.815 66.885 20.815V18.815ZM62.808 20.6944C61.9265 21.8988 61.55 23.5019 61.55 25.38H63.55C63.55 23.7381 63.8835 22.6112 64.4219 21.8756L62.808 20.6944ZM61.55 25.38C61.55 27.2581 61.9265 28.8612 62.808 30.0656L64.4219 28.8844C63.8835 28.1488 63.55 27.0219 63.55 25.38H61.55ZM62.812 30.071C63.7609 31.3494 65.1826 31.93 66.885 31.93V29.93C65.6673 29.93 64.9091 29.5406 64.4179 28.879L62.812 30.071ZM84.1021 25.185L83.7718 24.2411L83.7643 24.2438L84.1021 25.185ZM85.0921 24.6L85.7853 25.3208L85.7858 25.3203L85.0921 24.6ZM85.6921 23.67L84.7601 23.3076L84.7557 23.3189L84.7516 23.3304L85.6921 23.67ZM85.0921 20.385L84.385 21.0921L84.3917 21.0988L84.3985 21.1053L85.0921 20.385ZM80.3821 20.385L81.0825 21.0988L81.0826 21.0987L80.3821 20.385ZM79.7822 23.67L78.8416 24.0096L78.8474 24.0256L78.8537 24.0414L79.7822 23.67ZM80.3821 24.585L79.675 25.2921L79.6886 25.3057L79.7027 25.3188L80.3821 24.585ZM81.3721 25.185L81.0132 26.1183L81.0274 26.1238L81.0418 26.1289L81.3721 25.185ZM87.1021 32.94L86.3622 33.6127L86.37 33.6213L86.378 33.6297L87.1021 32.94ZM86.2771 32.43L85.92 33.3641L85.9363 33.3703L85.9528 33.3759L86.2771 32.43ZM85.0771 32.16L84.9478 33.1516L84.9584 33.153L84.9691 33.1541L85.0771 32.16ZM83.6221 32.025L83.5623 33.0232L83.5634 33.0233L83.6221 32.025ZM82.0771 31.95L82.0206 32.9484L82.03 32.9489L82.0394 32.9493L82.0771 31.95ZM80.5471 31.8L80.6886 30.8101L80.3793 30.7659L80.0999 30.9056L80.5471 31.8ZM79.2571 32.745L78.5208 32.0684L78.5158 32.0738L78.5109 32.0794L79.2571 32.745ZM79.0022 34.95L78.1339 35.4461L78.1405 35.4576L78.1474 35.469L79.0022 34.95ZM79.7672 35.67L80.2817 34.8125L80.2742 34.8081L79.7672 35.67ZM81.0722 36.15L81.293 35.1747L81.286 35.1731L81.2791 35.1716L81.0722 36.15ZM84.8671 36.135L84.654 35.158L84.6455 35.1598L84.6371 35.1618L84.8671 36.135ZM86.2471 35.61L85.7461 34.7446L85.7325 34.7524L85.7192 34.7607L86.2471 35.61ZM87.1021 34.815L86.2619 34.2729L86.2556 34.2826L86.2495 34.2924L87.1021 34.815ZM90.3721 18.33H91.3721V17.33H90.3721V18.33ZM89.6972 20.1L89.8424 21.0894L89.8679 21.0856L89.8933 21.0806L89.6972 20.1ZM88.0621 20.34L87.9169 19.3506L86.605 19.5432L87.1508 20.7516L88.0621 20.34ZM88.3922 21.33L87.4173 21.5528L87.4187 21.559L88.3922 21.33ZM88.0771 24.45L88.9775 24.8852L88.9803 24.8794L88.0771 24.45ZM86.8772 25.995L87.5217 26.7595L86.8772 25.995ZM85.0471 26.985L84.739 26.0337L84.735 26.035L85.0471 26.985ZM80.8021 27.105L81.0447 26.1349L80.6428 26.0344L80.2877 26.2475L80.8021 27.105ZM80.1122 27.705L79.3034 27.1168L79.2984 27.1238L80.1122 27.705ZM80.3222 29.115L79.8164 29.9777L79.8228 29.9814L79.8291 29.985L80.3222 29.115ZM81.4771 29.49L81.3093 30.4758L81.3211 30.4778L81.3328 30.4795L81.4771 29.49ZM83.1122 29.625L83.0794 30.6245L83.0799 30.6245L83.1122 29.625ZM84.9872 29.73L84.908 30.7269L84.9164 30.7275L84.9248 30.7281L84.9872 29.73ZM86.8622 29.97L86.6691 30.9512L86.6783 30.953L86.6875 30.9546L86.8622 29.97ZM88.4971 30.525L88.0131 31.4L88.0241 31.4061L88.0352 31.4119L88.4971 30.525ZM89.6521 31.575L88.8116 32.1167L88.8186 32.1276L88.8259 32.1383L89.6521 31.575ZM89.6071 35.22L88.7243 34.7501L88.7185 34.7614L89.6071 35.22ZM85.9322 38.025L85.6223 37.0742L85.9322 38.025ZM79.9472 38.13L79.6909 39.0966L79.6938 39.0974L79.9472 38.13ZM77.8622 37.245L77.304 38.0748L77.3109 38.0793L77.8622 37.245ZM76.6171 35.955L75.7413 36.4376L75.7451 36.4444L75.7489 36.4511L76.6171 35.955ZM76.9021 32.55L77.6448 33.2198L77.6511 33.2126L76.9021 32.55ZM78.8072 31.335L79.1442 32.2765L81.4661 31.4452L79.221 30.4246L78.8072 31.335ZM77.7571 30.525L76.9543 31.1214L76.9628 31.1325L77.7571 30.525ZM77.4872 28.47L78.4317 28.7985L78.4358 28.7862L77.4872 28.47ZM77.8471 27.765L77.0311 27.187L77.0262 27.1939L77.8471 27.765ZM78.4622 27.09L77.819 26.3243L77.8112 26.3308L77.8036 26.3374L78.4622 27.09ZM79.3171 26.52L79.7863 27.4031L81.4051 26.5431L79.8058 25.6475L79.3171 26.52ZM77.5471 24.855L76.6951 25.3784L76.6985 25.3839L77.5471 24.855ZM78.5371 18.84L77.8999 18.0693L77.8925 18.0755L78.5371 18.84ZM80.3821 17.85L80.0779 16.8974L80.074 16.8987L80.3821 17.85ZM86.1422 18.33L85.6411 19.1954L85.8736 19.33H86.1422V18.33ZM82.7372 26.395C83.3442 26.395 83.918 26.3136 84.44 26.1262L83.7643 24.2438C83.5063 24.3364 83.1701 24.395 82.7372 24.395V26.395ZM84.4325 26.1289C84.9445 25.9496 85.4052 25.6863 85.7853 25.3208L84.399 23.8792C84.2591 24.0137 84.0597 24.1404 83.7718 24.2411L84.4325 26.1289ZM85.7858 25.3203C86.1686 24.9517 86.4518 24.5106 86.6327 24.0096L84.7516 23.3304C84.6725 23.5494 84.5557 23.7283 84.3985 23.8797L85.7858 25.3203ZM86.6242 24.0324C86.8139 23.5445 86.9021 23.025 86.9021 22.485H84.9021C84.9021 22.805 84.8504 23.0755 84.7601 23.3076L86.6242 24.0324ZM86.9021 22.485C86.9021 21.3845 86.5556 20.406 85.7858 19.6647L84.3985 21.1053C84.7087 21.404 84.9021 21.8255 84.9021 22.485H86.9021ZM85.7993 19.6779C85.0188 18.8974 83.9377 18.59 82.7372 18.59V20.59C83.6166 20.59 84.1055 20.8125 84.385 21.0921L85.7993 19.6779ZM82.7372 18.59C81.5419 18.59 80.4679 18.8996 79.6817 19.6713L81.0826 21.0987C81.3764 20.8104 81.8723 20.59 82.7372 20.59V18.59ZM79.6818 19.6712C78.925 20.4137 78.5872 21.3901 78.5872 22.485H80.5872C80.5872 21.8199 80.7793 21.3963 81.0825 21.0988L79.6818 19.6712ZM78.5872 22.485C78.5872 23.0166 78.6677 23.5281 78.8416 24.0096L80.7227 23.3304C80.6366 23.0919 80.5872 22.8134 80.5872 22.485H78.5872ZM78.8537 24.0414C79.0427 24.5139 79.3168 24.9339 79.675 25.2921L81.0893 23.8779C80.9275 23.7161 80.8016 23.5261 80.7106 23.2986L78.8537 24.0414ZM79.7027 25.3188C80.0777 25.6659 80.5206 25.9289 81.0132 26.1183L81.7311 24.2517C81.4437 24.1411 81.2266 24.0041 81.0616 23.8512L79.7027 25.3188ZM81.0418 26.1289C81.5671 26.3127 82.1369 26.395 82.7372 26.395V24.395C82.3174 24.395 81.9772 24.3373 81.7025 24.2411L81.0418 26.1289ZM88.4022 33.795C88.4022 33.2434 88.2437 32.6886 87.8263 32.2503L86.378 33.6297C86.3784 33.63 86.3782 33.6298 86.3782 33.6299C86.3783 33.63 86.3805 33.6335 86.3836 33.6423C86.3898 33.6602 86.4022 33.7067 86.4022 33.795H88.4022ZM87.8421 32.2673C87.5043 31.8958 87.0724 31.6455 86.6015 31.4841L85.9528 33.3759C86.1819 33.4545 86.3 33.5442 86.3622 33.6127L87.8421 32.2673ZM86.6343 31.4959C86.196 31.3284 85.7086 31.2227 85.1852 31.1659L84.9691 33.1541C85.3657 33.1973 85.6783 33.2716 85.92 33.3641L86.6343 31.4959ZM85.2065 31.1684C84.7208 31.1051 84.2122 31.058 83.6809 31.0267L83.5634 33.0233C84.0521 33.052 84.5135 33.0949 84.9478 33.1516L85.2065 31.1684ZM83.682 31.0268C83.1742 30.9963 82.6518 30.971 82.1149 30.9507L82.0394 32.9493C82.5625 32.969 83.0701 32.9937 83.5623 33.0232L83.682 31.0268ZM82.1337 30.9516C81.6301 30.9231 81.1485 30.8757 80.6886 30.8101L80.4057 32.7899C80.9258 32.8643 81.4642 32.9169 82.0206 32.9484L82.1337 30.9516ZM80.0999 30.9056C79.4879 31.2116 78.955 31.5959 78.5208 32.0684L79.9935 33.4216C80.2393 33.1541 80.5664 32.9084 80.9944 32.6944L80.0999 30.9056ZM78.5109 32.0794C78.0159 32.6343 77.7621 33.3068 77.7621 34.05H79.7621C79.7621 33.7932 79.8384 33.5957 80.0034 33.4106L78.5109 32.0794ZM77.7621 34.05C77.7621 34.5454 77.8883 35.0163 78.1339 35.4461L79.8704 34.4539C79.796 34.3237 79.7621 34.1946 79.7621 34.05H77.7621ZM78.1474 35.469C78.419 35.9164 78.8066 36.2651 79.2601 36.5319L80.2742 34.8081C80.0477 34.6749 79.9253 34.5436 79.8569 34.431L78.1474 35.469ZM79.2527 36.5275C79.7216 36.8088 80.2677 37.0019 80.8652 37.1283L81.2791 35.1716C80.8366 35.078 80.5127 34.9512 80.2816 34.8125L79.2527 36.5275ZM80.8513 37.1253C81.4736 37.2662 82.1814 37.33 82.9622 37.33V35.33C82.2829 35.33 81.7307 35.2738 81.293 35.1747L80.8513 37.1253ZM82.9622 37.33C83.7396 37.33 84.4546 37.2601 85.0972 37.1082L84.6371 35.1618C84.1797 35.2699 83.6247 35.33 82.9622 35.33V37.33ZM85.0803 37.112C85.7109 36.9744 86.2846 36.7642 86.7751 36.4593L85.7192 34.7607C85.4697 34.9158 85.1234 35.0556 84.654 35.158L85.0803 37.112ZM86.7482 36.4754C87.2424 36.1893 87.6616 35.8159 87.9548 35.3376L86.2495 34.2924C86.1627 34.4341 86.0119 34.5907 85.7461 34.7446L86.7482 36.4754ZM87.9424 35.3571C88.247 34.885 88.4022 34.3567 88.4022 33.795H86.4022C86.4022 33.9733 86.3573 34.125 86.2619 34.2729L87.9424 35.3571ZM89.3721 18.33V19.425H91.3721V18.33H89.3721ZM89.3721 19.425C89.3721 19.4103 89.3746 19.3678 89.3966 19.3107C89.4195 19.2512 89.4552 19.1978 89.4963 19.1566C89.5724 19.0805 89.614 19.0968 89.501 19.1194L89.8933 21.0806C90.2303 21.0132 90.6094 20.872 90.9105 20.5709C91.2358 20.2456 91.3721 19.8322 91.3721 19.425H89.3721ZM89.5519 19.1106L87.9169 19.3506L88.2074 21.3294L89.8424 21.0894L89.5519 19.1106ZM87.1508 20.7516C87.2619 20.9977 87.3513 21.2641 87.4173 21.5528L89.367 21.1072C89.273 20.6959 89.1424 20.3023 88.9735 19.9284L87.1508 20.7516ZM87.4187 21.559C87.4796 21.8177 87.5121 22.1004 87.5121 22.41H89.5121C89.5121 21.9596 89.4647 21.5223 89.3656 21.101L87.4187 21.559ZM87.5121 22.41C87.5121 23.028 87.3935 23.559 87.174 24.0206L88.9803 24.8794C89.3408 24.121 89.5121 23.292 89.5121 22.41H87.5121ZM87.1768 24.0148C86.948 24.4882 86.6352 24.891 86.2326 25.2305L87.5217 26.7595C88.1391 26.239 88.6263 25.6118 88.9775 24.8852L87.1768 24.0148ZM86.2326 25.2305C85.8326 25.5677 85.3404 25.8388 84.739 26.0337L85.3553 27.9363C86.1739 27.6712 86.9017 27.2823 87.5217 26.7595L86.2326 25.2305ZM84.735 26.035C84.1487 26.2276 83.4857 26.33 82.7372 26.33V28.33C83.6686 28.33 84.5456 28.2024 85.3593 27.935L84.735 26.035ZM82.7372 26.33C82.1196 26.33 81.5568 26.2629 81.0447 26.1349L80.5596 28.0751C81.2475 28.2471 81.9747 28.33 82.7372 28.33V26.33ZM80.2877 26.2475C79.9041 26.4777 79.5615 26.7619 79.3034 27.1168L80.9209 28.2932C80.9828 28.2081 81.1003 28.0923 81.3166 27.9625L80.2877 26.2475ZM79.2984 27.1238C79.0554 27.464 78.8871 27.8729 78.8871 28.335H80.8871C80.8871 28.3515 80.8838 28.3601 80.8851 28.3563C80.8871 28.3509 80.8964 28.3275 80.9259 28.2862L79.2984 27.1238ZM78.8871 28.335C78.8871 29.022 79.2051 29.6193 79.8164 29.9777L80.8279 28.2523C80.8202 28.2478 80.8245 28.2492 80.8348 28.2594C80.8457 28.2702 80.8583 28.2858 80.8693 28.3054C80.8801 28.3249 80.8852 28.3409 80.8872 28.3494C80.8891 28.3571 80.8871 28.3535 80.8871 28.335H78.8871ZM79.8291 29.985C80.2605 30.2295 80.7656 30.3833 81.3093 30.4758L81.645 28.5042C81.2487 28.4367 80.9838 28.3405 80.8152 28.245L79.8291 29.985ZM81.3328 30.4795C81.8578 30.5561 82.4411 30.6035 83.0794 30.6245L83.1449 28.6255C82.5632 28.6065 82.0565 28.5639 81.6215 28.5005L81.3328 30.4795ZM83.0799 30.6245C83.684 30.644 84.2933 30.6781 84.908 30.7269L85.0663 28.7331C84.421 28.6819 83.7803 28.646 83.1444 28.6255L83.0799 30.6245ZM84.9248 30.7281C85.5223 30.7654 86.1036 30.8399 86.6691 30.9512L87.0552 28.9888C86.4007 28.8601 85.732 28.7746 85.0495 28.7319L84.9248 30.7281ZM86.6875 30.9546C87.2173 31.0486 87.6545 31.2016 88.0131 31.4L88.9812 29.65C88.3998 29.3284 87.747 29.1114 87.0368 28.9854L86.6875 30.9546ZM88.0352 31.4119C88.3629 31.5826 88.6167 31.8144 88.8116 32.1167L90.4927 31.0333C90.1076 30.4356 89.5914 29.9674 88.9591 29.6381L88.0352 31.4119ZM88.8259 32.1383C88.9806 32.3652 89.1021 32.7252 89.1021 33.3H91.1021C91.1021 32.4548 90.9237 31.6648 90.4784 31.0117L88.8259 32.1383ZM89.1021 33.3C89.1021 33.7856 88.9825 34.2652 88.7244 34.7501L90.4899 35.6898C90.8918 34.9348 91.1021 34.1344 91.1021 33.3H89.1021ZM88.7185 34.7614C88.4732 35.2366 88.1041 35.6774 87.585 36.0793L88.8093 37.6607C89.5302 37.1026 90.1011 36.4434 90.4958 35.6786L88.7185 34.7614ZM87.585 36.0793C87.0715 36.4768 86.4237 36.8131 85.6223 37.0742L86.242 38.9758C87.2206 38.6569 88.0828 38.2232 88.8093 37.6607L87.585 36.0793ZM85.6223 37.0742C84.8506 37.3257 83.948 37.46 82.9021 37.46V39.46C84.1163 39.46 85.2337 39.3043 86.242 38.9758L85.6223 37.0742ZM82.9021 37.46C81.8335 37.46 80.9373 37.3556 80.2005 37.1626L79.6938 39.0974C80.637 39.3444 81.7108 39.46 82.9021 39.46V37.46ZM80.2034 37.1634C79.4504 36.9638 78.8616 36.7068 78.4134 36.4107L77.3109 38.0793C77.9827 38.5232 78.7839 38.8562 79.6909 39.0966L80.2034 37.1634ZM78.4203 36.4153C77.9758 36.1162 77.6768 35.7939 77.4854 35.4589L75.7489 36.4511C76.1175 37.0961 76.6485 37.6338 77.304 38.0747L78.4203 36.4153ZM77.493 35.4724C77.2998 35.1217 77.2122 34.7768 77.2122 34.425H75.2122C75.2122 35.1332 75.3945 35.8083 75.7413 36.4376L77.493 35.4724ZM77.2122 34.425C77.2122 33.9116 77.3639 33.5311 77.6447 33.2198L76.1596 31.8802C75.5204 32.5889 75.2122 33.4584 75.2122 34.425H77.2122ZM77.6511 33.2126C77.9758 32.8455 78.4554 32.5231 79.1442 32.2765L78.4701 30.3935C77.5389 30.7269 76.7485 31.2145 76.1532 31.8874L77.6511 33.2126ZM79.221 30.4246C78.9112 30.2838 78.6992 30.1107 78.5515 29.9175L76.9628 31.1325C77.3351 31.6193 77.8231 31.9862 78.3933 32.2454L79.221 30.4246ZM78.5599 29.9287C78.4624 29.7974 78.3671 29.5661 78.3671 29.145H76.3671C76.3671 29.8639 76.5319 30.5526 76.9544 31.1213L78.5599 29.9287ZM78.3671 29.145C78.3671 29.0481 78.3845 28.9341 78.4316 28.7985L76.5426 28.1415C76.4298 28.4659 76.3671 28.8019 76.3671 29.145H78.3671ZM78.4358 28.7862C78.4826 28.646 78.5568 28.496 78.6681 28.3361L77.0262 27.1939C76.8175 27.494 76.6517 27.814 76.5385 28.1538L78.4358 28.7862ZM78.6632 28.343C78.7841 28.1723 78.9349 28.0051 79.1207 27.8426L77.8036 26.3374C77.5094 26.5949 77.2502 26.8777 77.0311 27.187L78.6632 28.343ZM79.1053 27.8557C79.2961 27.6955 79.5216 27.5437 79.7863 27.4031L78.848 25.6369C78.4727 25.8363 78.1282 26.0645 77.819 26.3243L79.1053 27.8557ZM79.8058 25.6475C79.1941 25.305 78.7316 24.8648 78.3958 24.3261L76.6985 25.3839C77.2227 26.2252 77.9402 26.895 78.8285 27.3925L79.8058 25.6475ZM78.3992 24.3316C78.0782 23.8091 77.9021 23.1802 77.9021 22.41H75.9021C75.9021 23.4998 76.1561 24.5009 76.6951 25.3784L78.3992 24.3316ZM77.9021 22.41C77.9021 21.7917 78.0209 21.2683 78.2375 20.8202L76.4368 19.9498C76.0734 20.7017 75.9021 21.5283 75.9021 22.41H77.9021ZM78.2375 20.8202C78.4663 20.3468 78.7791 19.944 79.1817 19.6045L77.8925 18.0755C77.2752 18.596 76.788 19.2232 76.4368 19.9498L78.2375 20.8202ZM79.1744 19.6106C79.5873 19.2692 80.0877 18.9965 80.6903 18.8013L80.074 16.8987C79.2566 17.1635 78.527 17.5508 77.8999 18.0694L79.1744 19.6106ZM80.6864 18.8026C81.2967 18.6076 81.9777 18.505 82.7372 18.505V16.505C81.7966 16.505 80.9076 16.6324 80.0779 16.8974L80.6864 18.8026ZM82.7372 18.505C83.9169 18.505 84.8715 18.7499 85.6411 19.1954L86.6432 17.4646C85.5128 16.8101 84.1974 16.505 82.7372 16.505V18.505ZM86.1422 19.33H90.3721V17.33H86.1422V19.33ZM105.731 17.76H106.731V16.76H105.731V17.76ZM105.731 33V34H106.731V33H105.731ZM103.196 32.415L102.205 32.551L102.216 32.6315L102.24 32.7091L103.196 32.415ZM102.986 30.885L103.977 30.749L103.692 28.678L102.258 30.199L102.986 30.885ZM101.951 31.845L101.324 31.0662L101.951 31.845ZM100.796 32.595L101.234 33.4938L101.243 33.4895L101.252 33.485L100.796 32.595ZM99.491 33.06L99.2584 32.0874L99.2485 32.0898L99.2386 32.0924L99.491 33.06ZM95.786 32.82L95.3798 33.7338L95.3852 33.7362L95.786 32.82ZM94.196 31.65L93.4314 32.2946L93.4378 32.302L94.196 31.65ZM92.891 17.76V16.76H91.891V17.76H92.891ZM95.831 17.76H96.831V16.76H95.831V17.76ZM96.581 30.015L95.8076 30.6489L95.8128 30.6552L96.581 30.015ZM100.976 30.39L101.45 31.2705L101.46 31.2648L100.976 30.39ZM102.806 28.92L103.542 29.5968L103.806 29.3098V28.92H102.806ZM102.806 17.76V16.76H101.806V17.76H102.806ZM104.731 17.76V33H106.731V17.76H104.731ZM105.731 32H103.976V34H105.731V32ZM103.976 32C103.957 32 103.963 31.9976 103.986 32.0044C104.01 32.0118 104.045 32.027 104.081 32.0537C104.159 32.1123 104.166 32.166 104.152 32.1209L102.24 32.7091C102.346 33.054 102.543 33.4002 102.881 33.6538C103.221 33.9086 103.611 34 103.976 34V32ZM104.187 32.279L103.977 30.749L101.995 31.021L102.205 32.551L104.187 32.279ZM102.258 30.199C101.958 30.5172 101.647 30.806 101.324 31.0662L102.578 32.6238C102.975 32.304 103.354 31.9528 103.714 31.571L102.258 30.199ZM101.324 31.0662C101.017 31.3135 100.689 31.5262 100.34 31.705L101.252 33.485C101.723 33.2438 102.165 32.9565 102.578 32.6238L101.324 31.0662ZM100.358 31.6962C100.016 31.863 99.6499 31.9938 99.2584 32.0874L99.7235 34.0326C100.252 33.9062 100.756 33.727 101.234 33.4938L100.358 31.6962ZM99.2386 32.0924C98.8698 32.1886 98.4604 32.24 98.006 32.24V34.24C98.6115 34.24 99.1922 34.1714 99.7434 34.0276L99.2386 32.0924ZM98.006 32.24C97.2765 32.24 96.6775 32.1185 96.1868 31.9038L95.3852 33.7362C96.1744 34.0815 97.0554 34.24 98.006 34.24V32.24ZM96.1921 31.9062C95.6911 31.6835 95.2832 31.3806 94.9542 30.998L93.4378 32.302C93.9687 32.9194 94.6209 33.3965 95.3798 33.7338L96.1921 31.9062ZM94.9605 31.0054C94.6261 30.6088 94.3611 30.1209 94.1762 29.524L92.2658 30.116C92.5209 30.9391 92.9059 31.6712 93.4315 32.2946L94.9605 31.0054ZM94.1762 29.524C93.9901 28.9236 93.891 28.24 93.891 27.465H91.891C91.891 28.41 92.0118 29.2964 92.2658 30.116L94.1762 29.524ZM93.891 27.465V17.76H91.891V27.465H93.891ZM92.891 18.76H95.831V16.76H92.891V18.76ZM94.831 17.76V27.465H96.831V17.76H94.831ZM94.831 27.465C94.831 28.6986 95.1138 29.8025 95.8076 30.6489L97.3544 29.3811C97.0482 29.0075 96.831 28.4114 96.831 27.465H94.831ZM95.8128 30.6552C96.5592 31.5509 97.6503 31.915 98.876 31.915V29.915C98.0416 29.915 97.6028 29.6791 97.3492 29.3748L95.8128 30.6552ZM98.876 31.915C99.7887 31.915 100.652 31.7002 101.45 31.2705L100.502 29.5095C100 29.7798 99.4632 29.915 98.876 29.915V31.915ZM101.46 31.2648C102.216 30.8463 102.909 30.2855 103.542 29.5968L102.07 28.2432C101.563 28.7945 101.036 29.2137 100.491 29.5152L101.46 31.2648ZM103.806 28.92V17.76H101.806V28.92H103.806ZM102.806 18.76H105.731V16.76H102.806V18.76ZM119.909 23.685V24.685H120.909V23.685H119.909ZM119.654 22.08L118.703 22.3904L118.706 22.3991L118.709 22.4078L119.654 22.08ZM118.934 20.805L119.681 20.1406L118.934 20.805ZM117.764 19.965L117.365 20.8821V20.8821L117.764 19.965ZM113.264 20.73L112.557 20.0229L112.552 20.0279L113.264 20.73ZM111.929 23.685L110.94 23.5359L110.767 24.685H111.929V23.685ZM122.324 30.825L123.083 31.4758L123.615 30.8557L123.113 30.2111L122.324 30.825ZM121.079 31.92L121.617 32.7629L121.623 32.7589L121.629 32.7548L121.079 31.92ZM119.579 32.655L119.916 33.5963L119.579 32.655ZM117.929 33.075L117.773 32.0872L117.77 32.0877L117.929 33.075ZM113.339 32.685L112.964 33.6121L112.976 33.617L113.339 32.685ZM111.014 31.125L110.286 31.8107L110.291 31.8161L110.296 31.8215L111.014 31.125ZM109.484 28.575L108.541 28.9078L108.545 28.919L109.484 28.575ZM109.439 22.11L110.379 22.4509L110.38 22.4476L109.439 22.11ZM110.849 19.71L110.11 19.0362L110.104 19.0422L110.849 19.71ZM113.114 18.105L113.515 19.0209H113.515L113.114 18.105ZM118.679 17.985L118.309 18.9143L118.317 18.9171L118.324 18.9199L118.679 17.985ZM120.719 19.305L120.006 20.0059V20.0059L120.719 19.305ZM122.054 21.45L121.118 21.8023L121.122 21.8119L122.054 21.45ZM122.399 25.275L123.231 25.8297L123.239 25.8175L123.247 25.805L122.399 25.275ZM111.854 25.5V24.5H110.82L110.854 25.5329L111.854 25.5ZM112.244 27.885L111.297 28.2054L111.298 28.2097L112.244 27.885ZM113.189 29.565L112.441 30.2294L112.45 30.2385L113.189 29.565ZM114.644 30.57L114.278 31.5008L114.644 30.57ZM118.199 30.675L117.901 29.7205L117.895 29.7223L118.199 30.675ZM119.429 30.195L119.876 31.0895L119.886 31.0843L119.429 30.195ZM120.299 29.7L119.769 28.852L119.761 28.8571L119.753 28.8624L120.299 29.7ZM121.484 29.745L120.673 30.3305L120.684 30.3449L120.694 30.3589L121.484 29.745ZM120.909 23.685C120.909 23.0065 120.809 22.3593 120.599 21.7522L118.709 22.4078C118.838 22.7807 118.909 23.2035 118.909 23.685H120.909ZM120.604 21.7696C120.405 21.1582 120.099 20.6105 119.681 20.1406L118.186 21.4694C118.409 21.7195 118.583 22.0218 118.703 22.3904L120.604 21.7696ZM119.681 20.1406C119.261 19.6676 118.75 19.3034 118.163 19.0479L117.365 20.8821C117.698 21.0266 117.967 21.2224 118.186 21.4694L119.681 20.1406ZM118.163 19.0479C117.555 18.7836 116.885 18.665 116.174 18.665V20.665C116.663 20.665 117.053 20.7464 117.365 20.8821L118.163 19.0479ZM116.174 18.665C114.742 18.665 113.495 19.0848 112.557 20.0229L113.971 21.4371C114.453 20.9552 115.146 20.665 116.174 20.665V18.665ZM112.552 20.0279C111.667 20.9256 111.153 22.1253 110.94 23.5359L112.918 23.8341C113.085 22.7247 113.461 21.9544 113.976 21.4321L112.552 20.0279ZM111.929 24.685H119.909V22.685H111.929V24.685ZM121.565 30.1742C121.266 30.5222 120.922 30.8256 120.528 31.0852L121.629 32.7548C122.176 32.3944 122.661 31.9678 123.083 31.4758L121.565 30.1742ZM120.541 31.0771C120.134 31.3365 119.702 31.5486 119.241 31.7137L119.916 33.5963C120.516 33.3814 121.083 33.1035 121.617 32.7629L120.541 31.0771ZM119.241 31.7137C118.772 31.882 118.283 32.0068 117.773 32.0872L118.085 34.0628C118.715 33.9632 119.326 33.808 119.916 33.5963L119.241 31.7137ZM117.77 32.0877C117.261 32.1695 116.759 32.21 116.264 32.21V34.21C116.869 34.21 117.477 34.1605 118.087 34.0623L117.77 32.0877ZM116.264 32.21C115.327 32.21 114.476 32.0543 113.701 31.753L112.976 33.617C114.002 34.0157 115.101 34.21 116.264 34.21V32.21ZM113.714 31.758C112.951 31.4494 112.293 31.0073 111.731 30.4285L110.296 31.8215C111.054 32.6027 111.947 33.2006 112.964 33.612L113.714 31.758ZM111.742 30.4393C111.196 29.8602 110.752 29.1311 110.423 28.231L108.545 28.919C108.955 30.0389 109.531 31.0098 110.286 31.8107L111.742 30.4393ZM110.427 28.2422C110.112 27.3497 109.944 26.2958 109.944 25.065H107.944C107.944 26.4742 108.136 27.7603 108.541 28.9078L110.427 28.2422ZM109.944 25.065C109.944 24.1102 110.092 23.2417 110.379 22.4509L108.499 21.7691C108.125 22.7983 107.944 23.8998 107.944 25.065H109.944ZM110.38 22.4476C110.669 21.6408 111.075 20.9549 111.593 20.3778L110.104 19.0422C109.402 19.8251 108.868 20.7392 108.498 21.7724L110.38 22.4476ZM111.588 20.3838C112.108 19.813 112.746 19.3579 113.515 19.0209L112.712 17.1891C111.701 17.6321 110.829 18.247 110.11 19.0362L111.588 20.3838ZM113.515 19.0209C114.262 18.6937 115.122 18.52 116.114 18.52V16.52C114.885 16.52 113.746 16.7363 112.712 17.1891L113.515 19.0209ZM116.114 18.52C116.931 18.52 117.659 18.6558 118.309 18.9143L119.048 17.0557C118.139 16.6942 117.157 16.52 116.114 16.52V18.52ZM118.324 18.9199C118.984 19.1707 119.541 19.5329 120.006 20.0059L121.432 18.6041C120.757 17.9171 119.953 17.3993 119.034 17.0501L118.324 18.9199ZM120.006 20.0059C120.467 20.4755 120.841 21.0675 121.118 21.8023L122.99 21.0977C122.626 20.1325 122.111 19.2945 121.432 18.6041L120.006 20.0059ZM121.122 21.8119C121.399 22.5264 121.549 23.3702 121.549 24.36H123.549C123.549 23.1698 123.369 22.0736 122.986 21.0881L121.122 21.8119ZM121.549 24.36C121.549 24.5529 121.538 24.6836 121.524 24.7645C121.521 24.7834 121.518 24.7975 121.516 24.8073C121.514 24.8172 121.513 24.8214 121.513 24.8208C121.513 24.8203 121.515 24.8132 121.521 24.801C121.526 24.7888 121.536 24.7693 121.551 24.745L123.247 25.805C123.398 25.5635 123.464 25.2983 123.498 25.088C123.535 24.8639 123.549 24.6171 123.549 24.36H121.549ZM121.567 24.7203C121.64 24.6106 121.737 24.5465 121.809 24.517C121.87 24.4923 121.893 24.5 121.844 24.5V26.5C122.272 26.5 122.865 26.3781 123.231 25.8297L121.567 24.7203ZM121.844 24.5H111.854V26.5H121.844V24.5ZM110.854 25.5329C110.887 26.5159 111.028 27.4117 111.297 28.2054L113.191 27.5646C113 26.9983 112.881 26.3041 112.853 25.4671L110.854 25.5329ZM111.298 28.2097C111.563 28.9832 111.939 29.6645 112.441 30.2294L113.936 28.9006C113.638 28.5655 113.384 28.1268 113.19 27.5603L111.298 28.2097ZM112.45 30.2385C112.961 30.8003 113.574 31.2241 114.278 31.5008L115.009 29.6392C114.594 29.4759 114.236 29.2297 113.928 28.8915L112.45 30.2385ZM114.278 31.5008C114.97 31.7727 115.722 31.9 116.519 31.9V29.9C115.936 29.9 115.437 29.8073 115.009 29.6392L114.278 31.5008ZM116.519 31.9C117.241 31.9 117.909 31.8172 118.503 31.6277L117.895 29.7223C117.549 29.8328 117.096 29.9 116.519 29.9V31.9ZM118.497 31.6295C119.013 31.4683 119.476 31.2896 119.876 31.0894L118.982 29.3006C118.702 29.4404 118.345 29.5817 117.901 29.7205L118.497 31.6295ZM119.886 31.0843C120.255 30.8947 120.577 30.7124 120.845 30.5376L119.753 28.8624C119.561 28.9876 119.303 29.1353 118.971 29.3057L119.886 31.0843ZM120.829 30.548C120.903 30.5015 120.951 30.4809 120.973 30.473C120.994 30.4652 120.977 30.475 120.929 30.475V28.475C120.483 28.475 120.084 28.6547 119.769 28.852L120.829 30.548ZM120.929 30.475C120.922 30.475 120.875 30.4732 120.81 30.4417C120.743 30.4089 120.697 30.3634 120.673 30.3305L122.294 29.1595C121.959 28.6955 121.46 28.475 120.929 28.475V30.475ZM120.694 30.3589L121.534 31.4389L123.113 30.2111L122.273 29.1311L120.694 30.3589Z" fill="black" mask="url(#path-2-outside-1_1_559)"/>
</g>
<defs>
<filter id="filter0_d_1_559" x="0.917572" y="10.46" width="126.697" height="37" filterUnits="userSpaceOnUse" color-interpolation-filters="sRGB">
<feFlood flood-opacity="0" result="BackgroundImageFix"/>
<feColorMatrix in="SourceAlpha" type="matrix" values="0 0 0 0 0 0 0 0 0 0 0 0 0 0 0 0 0 0 127 0" result="hardAlpha"/>
<feOffset dy="4"/>
<feGaussianBlur stdDeviation="2"/>
<feComposite in2="hardAlpha" operator="out"/>
<feColorMatrix type="matrix" values="0 0 0 0 0 0 0 0 0 0 0 0 0 0 0 0 0 0 0.25 0"/>
<feBlend mode="normal" in2="BackgroundImageFix" result="effect1_dropShadow_1_559"/>
<feBlend mode="normal" in="SourceGraphic" in2="effect1_dropShadow_1_559" result="shape"/>
</filter>
</defs>
</svg>
