<svg width="76" height="67" viewBox="0 0 76 67" fill="none" xmlns="http://www.w3.org/2000/svg">
<path d="M70.5866 0.666992H46.0111C45.4582 0.666992 45.0101 1.11187 45.0101 1.6609C45.0101 2.20993 45.4582 2.65481 46.0111 2.65481H70.5866C72.099 2.65481 73.3294 3.87652 73.3294 5.37811V30.972C73.3294 32.4736 72.099 33.6953 70.5866 33.6953H66.6613C66.4505 33.6953 66.2449 33.7615 66.0742 33.8843L59.2485 38.793V34.6893C59.2485 34.1402 58.8005 33.6953 58.2475 33.6953H36.5202C35.0077 33.6953 33.7774 32.4736 33.7774 30.972V5.37811C33.7774 3.87652 35.0079 2.65481 36.5202 2.65481H41.6494C42.2023 2.65481 42.6504 2.20993 42.6504 1.6609C42.6504 1.11187 42.2023 0.666992 41.6494 0.666992H36.5202C33.9038 0.666992 31.7754 2.7803 31.7754 5.37811V30.972C31.7754 33.5698 33.9039 35.6832 36.5202 35.6832H57.2465V40.7402C57.2465 41.1136 57.4574 41.4555 57.7924 41.6254C58.1474 41.7934 58.4948 41.7667 58.8348 41.5452L66.9858 35.6833H70.5866C73.203 35.6833 75.3314 33.57 75.3314 30.9722V5.37811C75.3314 2.78044 73.2029 0.666992 70.5866 0.666992Z" fill="#1F1F1F" stroke="#1F1F1F" stroke-width="0.4"/>
<path d="M64.1877 54.9173C63.9597 53.2873 63.0003 51.9015 61.5526 51.1127L56.689 48.4629C56.1586 48.1734 55.4944 48.3694 55.2054 48.9002C54.9166 49.4306 55.1123 50.0948 55.6428 50.3837L60.5059 53.0334C61.338 53.4866 61.8894 54.2825 62.0212 55.2186C62.0219 55.2246 62.0226 55.2306 62.0235 55.2364C62.1511 56.1819 61.8293 57.1043 61.141 57.7661L60.4241 58.4544L42.4689 48.3513L44.579 46.4952C45.4792 45.7032 46.7896 45.5569 47.8409 46.1312L50.8756 47.785C51.406 48.0739 52.0702 47.8785 52.3594 47.348C52.6483 46.8176 52.4529 46.1534 51.9223 45.8642L48.8884 44.2108C47.0343 43.1985 44.7217 43.4562 43.1345 44.8526L38.217 49.178C37.2098 50.0639 35.7397 50.1461 34.6424 49.3775C27.2355 44.1885 21.8566 38.4799 18.1984 31.9263C17.5816 30.8198 17.7539 29.4551 18.627 28.5307L22.5194 24.4139C23.9708 22.8771 24.3111 20.5749 23.3661 18.685L16.8158 5.58445C16.0861 4.12311 14.7459 3.11647 13.1391 2.82248C11.5312 2.52791 9.9205 2.99558 8.71947 4.10459L6.23165 6.40298C3.48163 8.9433 1.66171 12.2285 0.968734 15.9031C0.274449 19.5837 0.779741 23.2967 2.42978 26.6417C2.43707 26.6571 2.44393 26.6705 2.44961 26.6816C3.4952 28.7961 4.6258 30.8638 5.80787 32.8239C6.00518 33.1537 6.21794 33.5023 6.43989 33.86C6.75852 34.373 7.43269 34.5308 7.946 34.2123C8.45917 33.8937 8.61695 33.2194 8.29846 32.7062C8.08278 32.3587 7.87629 32.0204 7.68307 31.6975C6.53162 29.7882 5.43179 27.7769 4.41406 25.7194C4.40837 25.7075 4.40253 25.6958 4.39656 25.6842C1.52142 19.8667 2.80601 12.7285 7.50414 8.21358L17.3675 26.6791L17.0372 27.0285C15.5047 28.6507 15.2035 31.0473 16.2881 32.9922C20.1109 39.841 25.704 45.7866 33.3874 51.1693C34.2693 51.7868 35.2879 52.0916 36.303 52.0916C37.5057 52.0916 38.7032 51.6635 39.6617 50.8204L40.7288 49.8819L58.7761 60.0367L58.7579 60.0542C54.106 64.5236 47.1373 65.5407 41.4176 62.5851C29.02 56.1768 18.9415 47.7057 11.4622 37.4077C11.1071 36.9189 10.4232 36.8102 9.9345 37.1654C9.44569 37.5205 9.33734 38.2043 9.69228 38.6931C17.3739 49.2697 27.7099 57.9621 40.413 64.5287C42.9136 65.8207 45.6213 66.4501 48.3112 66.4501C52.6693 66.4501 56.9791 64.7969 60.2729 61.6322L62.6563 59.3436C63.8451 58.2005 64.405 56.6117 64.1958 54.9793C64.1937 54.9585 64.191 54.938 64.1877 54.9173ZM9.16162 6.67408L10.2037 5.71147C10.8943 5.07376 11.8203 4.8053 12.7453 4.97416C13.669 5.14318 14.4394 5.72182 14.8591 6.56237L21.4097 19.6635C21.9454 20.7351 21.7524 22.0405 20.9296 22.9115L18.952 25.0031L9.16162 6.67408Z" fill="#1F1F1F" stroke="#1F1F1F" stroke-width="0.4"/>
<path d="M67.1429 18.6545C67.1429 16.5479 65.429 14.834 63.3223 14.834C61.2159 14.834 59.502 16.5479 59.502 18.6545C59.502 20.761 61.2159 22.4749 63.3223 22.4749C65.429 22.4749 67.1429 20.761 67.1429 18.6545ZM61.6892 18.6545C61.6892 17.754 62.4217 17.0214 63.3222 17.0214C64.2227 17.0214 64.9553 17.754 64.9553 18.6545C64.9553 19.555 64.2227 20.2875 63.3222 20.2875C62.4217 20.2875 61.6892 19.555 61.6892 18.6545Z" fill="#1F1F1F"/>
<path d="M57.0159 18.6545C57.0159 16.5479 55.302 14.834 53.1955 14.834C51.0889 14.834 49.375 16.5479 49.375 18.6545C49.375 20.761 51.0889 22.4749 53.1955 22.4749C55.302 22.4749 57.0159 20.761 57.0159 18.6545ZM51.5623 18.6545C51.5623 17.754 52.2949 17.0214 53.1954 17.0214C54.0959 17.0214 54.8284 17.754 54.8284 18.6545C54.8284 19.555 54.0959 20.2875 53.1954 20.2875C52.2949 20.2875 51.5623 19.555 51.5623 18.6545Z" fill="#1F1F1F"/>
<path d="M39.2441 18.6545C39.2441 20.761 40.9579 22.4749 43.0647 22.4749C45.1714 22.4749 46.8852 20.761 46.8852 18.6545C46.8852 16.5479 45.1713 14.834 43.0647 14.834C40.9581 14.834 39.2441 16.5479 39.2441 18.6545ZM43.0647 17.0214C43.9652 17.0214 44.6978 17.754 44.6978 18.6545C44.6978 19.555 43.9652 20.2875 43.0647 20.2875C42.1642 20.2875 41.4317 19.555 41.4317 18.6545C41.4317 17.754 42.1642 17.0214 43.0647 17.0214Z" fill="#1F1F1F"/>
</svg>
