<svg width="72" height="72" viewBox="0 0 72 72" fill="none" xmlns="http://www.w3.org/2000/svg">
<path d="M71.1272 40.0915C70.7249 38.6343 70.3462 37.2569 70.3462 36C70.3462 34.7431 70.7249 33.3657 71.1272 31.9085C71.7673 29.5889 72.4278 27.1894 71.6374 24.8572C70.8173 22.4311 68.7733 20.8456 66.7966 19.3148C65.6118 18.396 64.4927 17.5289 63.7665 16.5741C63.0278 15.6005 62.5051 14.3014 61.9541 12.9256C61.0448 10.6654 60.1058 8.32696 58.0023 6.85878C55.9332 5.41252 53.3508 5.27322 50.8576 5.14017C49.3019 5.05722 47.8307 4.97739 46.599 4.59391C45.4471 4.23548 44.2545 3.492 42.993 2.7047C40.9631 1.43687 38.6609 0 35.9986 0C33.3364 0 31.0342 1.43687 29.0042 2.70626C27.7428 3.49357 26.5533 4.23861 25.3998 4.59548C24.1665 4.97896 22.6953 5.05878 21.1396 5.14174C18.6449 5.27635 16.0656 5.41409 13.995 6.86035C11.8915 8.32852 10.9524 10.6654 10.0431 12.9256C9.48907 14.3014 8.96633 15.6021 8.2276 16.5757C7.5014 17.5336 6.38236 18.4007 5.19758 19.321C3.22243 20.8534 1.18155 22.4358 0.361441 24.8588C-0.428932 27.1925 0.231538 29.5904 0.870096 31.9116C1.27233 33.3689 1.65108 34.7447 1.65108 36.0016C1.65108 37.2584 1.27233 38.6358 0.870096 40.093C0.231538 42.4127 -0.428932 44.8122 0.361441 47.1475C1.18155 49.5704 3.224 51.156 5.19915 52.6868C6.38392 53.604 7.50296 54.4727 8.2276 55.4275C8.96789 56.401 9.49063 57.7002 10.0431 59.0776C10.9524 61.3377 11.8931 63.6762 13.9981 65.1475C16.0656 66.5906 18.6464 66.7283 21.1396 66.8614C22.6953 66.9443 24.1665 67.0242 25.3983 67.4076C26.5502 67.7661 27.7412 68.5096 29.0011 69.2953C31.0326 70.5616 33.3348 72 35.9986 72C38.6624 72 40.9662 70.5616 42.9993 69.2937C44.2592 68.508 45.4487 67.7645 46.6021 67.4061C47.8339 67.0226 49.3051 66.9428 50.8608 66.8598C53.3555 66.7268 55.9348 66.589 58.0023 65.1459C60.1105 63.6746 61.0495 61.333 61.9588 59.0713C62.5113 57.697 63.0325 56.3979 63.7681 55.4275C64.4943 54.4727 65.6133 53.604 66.7981 52.6868C68.7748 51.1544 70.8173 49.5704 71.6389 47.1459C72.4293 44.8106 71.7673 42.4127 71.1272 40.0915ZM68.6729 46.1426C68.1549 47.6734 66.5632 48.9068 64.8791 50.2122C63.5879 51.2139 62.2513 52.2501 61.2747 53.5336C60.284 54.8421 59.658 56.3979 59.0523 57.9052C58.2807 59.8273 57.5513 61.6414 56.2101 62.5774C54.8735 63.5103 52.8435 63.6183 50.6931 63.7325C49.0138 63.8217 47.2749 63.9141 45.6692 64.415C44.1338 64.8955 42.7127 65.7798 41.3401 66.6376C39.5011 67.7864 37.7654 68.8696 35.9984 68.8696C34.2314 68.8696 32.4973 67.7864 30.6583 66.6376C29.2873 65.7814 27.8678 64.8955 26.3309 64.415C24.7251 63.9156 22.9862 63.8217 21.3069 63.7325C19.1565 63.6183 17.125 63.5087 15.7899 62.5774C14.4502 61.6414 13.7193 59.8273 12.9477 57.9068C12.342 56.3995 11.7144 54.8421 10.7222 53.5336C9.74711 52.2501 8.41052 51.2139 7.11776 50.2106C5.43528 48.9052 3.84514 47.6734 3.3271 46.1426C2.84348 44.7167 3.35214 42.8729 3.88897 40.9226C4.32719 39.3276 4.78107 37.681 4.78107 35.9984C4.78107 34.3158 4.32719 32.6708 3.88897 31.0758C3.35057 29.1256 2.84348 27.2833 3.3271 25.8574C3.84514 24.3266 5.43372 23.0948 7.11619 21.7894C8.40896 20.7861 9.74711 19.7483 10.7206 18.4633C11.716 17.1548 12.342 15.5958 12.9493 14.0885C13.7193 12.168 14.4487 10.3555 15.7868 9.42261C17.1234 8.48817 19.1565 8.38017 21.3085 8.26591C22.9862 8.17513 24.7251 8.08278 26.3293 7.58191C27.8678 7.10296 29.2889 6.21548 30.663 5.35774C32.4989 4.21357 34.233 3.13043 35.9984 3.13043C37.7639 3.13043 39.4995 4.21357 41.337 5.36087C42.7111 6.22017 44.1307 7.10609 45.6692 7.58504C47.2734 8.08435 49.0106 8.1767 50.69 8.26748C52.842 8.38174 54.8735 8.49287 56.2101 9.42574C57.5498 10.3617 58.2791 12.1743 59.0491 14.0917C59.6564 15.6005 60.2809 17.1579 61.2763 18.4664C62.2513 19.7499 63.5879 20.7861 64.8791 21.7878C66.5632 23.0948 68.1549 24.3282 68.6729 25.8621C69.1565 27.2849 68.6463 29.1271 68.1095 31.0774C67.6697 32.6723 67.2158 34.319 67.2158 36.0016C67.2158 37.6842 67.6681 39.3308 68.1095 40.9242C68.6481 42.8744 69.1565 44.7167 68.6729 46.1426Z" fill="#1F1F1F"/>
<path d="M35.9979 12.5215C23.053 12.5215 12.5215 23.0538 12.5215 35.9998C12.5215 48.9457 23.053 59.478 35.9979 59.478C48.9428 59.478 59.4743 48.9457 59.4743 35.9998C59.4743 23.0538 48.9428 12.5215 35.9979 12.5215ZM35.9979 56.3476C24.7793 56.3476 15.6517 47.2192 15.6517 35.9998C15.6517 24.7803 24.7793 15.6519 35.9979 15.6519C41.784 15.6519 47.0005 18.0921 50.7098 21.9832L35.7944 42.9744L27.7139 34.8931C27.1019 34.2811 26.1128 34.2811 25.5008 34.8931C24.8889 35.5051 24.8889 36.4944 25.5008 37.1064L34.8914 46.4977C35.1856 46.7935 35.5847 46.9563 35.9979 46.9563C36.0402 46.9563 36.0855 46.9547 36.1294 46.95C36.5879 46.9124 37.0074 46.673 37.2734 46.2973L52.7632 24.497C55.0169 27.7714 56.3441 31.7314 56.3441 35.9998C56.3441 47.2192 47.2165 56.3476 35.9979 56.3476Z" fill="#1F1F1F"/>
</svg>
