<svg width="25" height="24" viewBox="0 0 25 24" fill="none" xmlns="http://www.w3.org/2000/svg">
<path d="M12.6025 7.07671C9.87831 7.07671 7.68097 9.27406 7.68097 11.9982C7.68097 14.7224 9.87831 16.9198 12.6025 16.9198C15.3267 16.9198 17.524 14.7224 17.524 11.9982C17.524 9.27406 15.3267 7.07671 12.6025 7.07671ZM12.6025 15.1979C10.8421 15.1979 9.40286 13.763 9.40286 11.9982C9.40286 10.2335 10.8378 8.79861 12.6025 8.79861C14.3672 8.79861 15.8022 10.2335 15.8022 11.9982C15.8022 13.763 14.363 15.1979 12.6025 15.1979ZM18.8733 6.87539C18.8733 7.51361 18.3593 8.02332 17.7254 8.02332C17.0871 8.02332 16.5774 7.50933 16.5774 6.87539C16.5774 6.24146 17.0914 5.72746 17.7254 5.72746C18.3593 5.72746 18.8733 6.24146 18.8733 6.87539ZM22.1329 8.04046C22.0601 6.50274 21.7089 5.14065 20.5823 4.01842C19.4601 2.89619 18.098 2.54495 16.5603 2.46785C14.9755 2.3779 10.2253 2.3779 8.64043 2.46785C7.107 2.54067 5.74491 2.8919 4.61839 4.01413C3.49188 5.13636 3.14493 6.49846 3.06783 8.03617C2.97788 9.621 2.97788 14.3712 3.06783 15.956C3.14065 17.4938 3.49188 18.8559 4.61839 19.9781C5.74491 21.1003 7.10272 21.4515 8.64043 21.5286C10.2253 21.6186 14.9755 21.6186 16.5603 21.5286C18.098 21.4558 19.4601 21.1046 20.5823 19.9781C21.7046 18.8559 22.0558 17.4938 22.1329 15.956C22.2229 14.3712 22.2229 9.62529 22.1329 8.04046ZM20.0855 17.6565C19.7514 18.4961 19.1046 19.1428 18.2608 19.4812C16.9972 19.9824 13.9989 19.8667 12.6025 19.8667C11.2061 19.8667 8.20353 19.9781 6.94424 19.4812C6.10471 19.1471 5.45792 18.5003 5.11954 17.6565C4.61839 16.3929 4.73404 13.3946 4.73404 11.9982C4.73404 10.6019 4.62268 7.59928 5.11954 6.33998C5.45364 5.50045 6.10042 4.85366 6.94424 4.51528C8.20782 4.01413 11.2061 4.12978 12.6025 4.12978C13.9989 4.12978 17.0015 4.01842 18.2608 4.51528C19.1003 4.84938 19.7471 5.49616 20.0855 6.33998C20.5866 7.60356 20.471 10.6019 20.471 11.9982C20.471 13.3946 20.5866 16.3972 20.0855 17.6565Z" fill="#1F1F1F"/>
</svg>
