<svg width="25" height="24" viewBox="0 0 25 24" fill="none" xmlns="http://www.w3.org/2000/svg">
<path d="M13.2484 2.40039C9.30148 2.40039 5.40076 5.03165 5.40076 9.29012C5.40076 11.9983 6.92411 13.5371 7.84736 13.5371C8.2282 13.5371 8.44747 12.4753 8.44747 12.1753C8.44747 11.8175 7.53577 11.0558 7.53577 9.5671C7.53577 6.47422 9.89005 4.28151 12.9368 4.28151C15.5565 4.28151 17.4953 5.77024 17.4953 8.50536C17.4953 10.548 16.6759 14.3795 14.0216 14.3795C13.0637 14.3795 12.2443 13.6871 12.2443 12.6946C12.2443 11.2405 13.2599 9.83253 13.2599 8.33226C13.2599 5.78563 9.64769 6.24726 9.64769 9.32475C9.64769 9.97102 9.72848 10.6865 10.017 11.2751C9.48613 13.5601 8.40131 16.9646 8.40131 19.3189C8.40131 20.046 8.50518 20.7615 8.57442 21.4885C8.70521 21.6347 8.63982 21.6193 8.83985 21.5462C10.7787 18.8919 10.7094 18.3726 11.5865 14.8989C12.0597 15.799 13.283 16.2837 14.2524 16.2837C18.3378 16.2837 20.1727 12.3022 20.1727 8.7131C20.1727 4.89316 16.8721 2.40039 13.2484 2.40039Z" fill="#1F1F1F"/>
</svg>
