<svg width="72" height="72" viewBox="0 0 72 72" fill="none" xmlns="http://www.w3.org/2000/svg">
<path d="M49.3342 59.7032H4.3742C2.20828 59.7032 0.445312 57.9402 0.445312 55.7743V19.7032C0.445312 18.8854 1.10902 18.2217 1.92679 18.2217H58.2231C59.0409 18.2217 59.7046 18.8854 59.7046 19.7032V31.555C59.7046 32.3728 59.0409 33.0365 58.2231 33.0365C57.4053 33.0365 56.7416 32.3728 56.7416 31.555V21.1846H3.40828V55.7743C3.40828 56.3076 3.84087 56.7402 4.3742 56.7402H49.3342C50.152 56.7402 50.8157 57.4039 50.8157 58.2217C50.8157 59.0395 50.152 59.7032 49.3342 59.7032Z" fill="#1F1F1F"/>
<path d="M58.2231 21.1851C57.7016 21.1851 57.1949 20.9095 56.9253 20.4177L47.9772 4.17471C47.7194 3.70063 47.2216 3.4073 46.6794 3.4073H13.4705C12.9283 3.4073 12.4305 3.70063 12.1727 4.17471L3.22457 20.4177C2.83049 21.1377 1.92383 21.3895 1.21272 21.0014C0.495679 20.6073 0.234938 19.7036 0.629013 18.9895L9.57716 2.74656C10.3564 1.32434 11.8498 0.444336 13.4705 0.444336H46.6823C48.3031 0.444336 49.7964 1.32434 50.5757 2.7436L59.5209 18.9866C59.9179 19.7036 59.6572 20.6043 58.9401 20.9984C58.712 21.1258 58.4661 21.1851 58.2231 21.1851Z" fill="#1F1F1F"/>
<path d="M30.077 21.1851C29.2593 21.1851 28.5956 20.5214 28.5956 19.7036V1.92582C28.5956 1.10804 29.2593 0.444336 30.077 0.444336C30.8948 0.444336 31.5585 1.10804 31.5585 1.92582V19.7036C31.5585 20.5214 30.8948 21.1851 30.077 21.1851Z" fill="#1F1F1F"/>
<path d="M70.0758 71.5553C69.258 71.5553 68.5943 70.8916 68.5943 70.0739V64.1479C68.5943 55.1613 61.2817 47.8516 52.298 47.8516H46.3721C45.5543 47.8516 44.8906 47.1879 44.8906 46.3702C44.8906 45.5524 45.5543 44.8887 46.3721 44.8887H52.298C62.9173 44.8887 71.5573 53.5287 71.5573 64.1479V70.0739C71.5573 70.8916 70.8936 71.5553 70.0758 71.5553Z" fill="#1F1F1F"/>
<path d="M56.7425 56.7406C56.4017 56.7406 56.058 56.6221 55.7795 56.3821L45.4091 47.4932C45.0773 47.2147 44.8906 46.8029 44.8906 46.3703C44.8906 45.9377 45.0773 45.5258 45.4091 45.2473L55.7795 36.3584C56.3988 35.828 57.3291 35.8962 57.8684 36.5184C58.4017 37.1377 58.3277 38.074 57.7054 38.6073L48.6506 46.3703L57.7084 54.1362C58.3306 54.6695 58.4017 55.6029 57.8714 56.2251C57.5721 56.5658 57.1603 56.7406 56.7425 56.7406Z" fill="#1F1F1F"/>
</svg>
