<svg width="80" height="80" viewBox="0 0 80 80" fill="none" xmlns="http://www.w3.org/2000/svg">
<path d="M63.3901 29.9847H58.6334L60.0666 13.4323C60.0692 13.4023 60.0697 13.3728 60.0698 13.3432C60.0698 13.3407 60.0701 13.3383 60.0701 13.3358C60.0701 13.3354 60.0701 13.3351 60.0701 13.3346C60.0701 12.8841 59.7999 12.487 59.4028 12.3144C59.3994 12.3129 59.3962 12.3111 59.3928 12.3096C59.3681 12.2993 59.3426 12.2903 59.3169 12.2817C59.3073 12.2786 59.2982 12.2748 59.2886 12.2718C59.2676 12.2654 59.2461 12.2604 59.2247 12.2552C59.2096 12.2516 59.1952 12.2473 59.18 12.2443C59.1612 12.2406 59.1417 12.2382 59.1226 12.2354C59.1046 12.2328 59.0868 12.2296 59.0687 12.228C59.0656 12.2277 59.0628 12.2271 59.0597 12.2268C59.0402 12.225 59.021 12.2253 59.0017 12.2246C58.9887 12.2241 58.976 12.2227 58.963 12.2227H58.9492C58.948 12.2227 58.9468 12.2227 58.9458 12.2227H36.3128C35.7019 12.2227 35.206 12.7214 35.206 13.336C35.206 13.949 35.7019 14.4493 36.3128 14.4493H57.7567L55.554 39.8881C55.5537 39.8901 55.5537 39.892 55.5534 39.8939L54.9977 46.3126H16.5396L17.1829 39.6331H24.5054C25.1168 39.6331 25.6122 39.1347 25.6122 38.5198C25.6122 37.905 25.1168 37.4065 24.5054 37.4065H17.3974L18.7557 23.3055H30.41C31.0214 23.3055 31.5168 22.807 31.5168 22.1922C31.5168 21.5773 31.0214 21.0789 30.41 21.0789H18.9702L19.6089 14.4493H31.8857C32.4952 14.4493 32.9925 13.949 32.9925 13.336C32.9925 12.7214 32.4952 12.2227 31.8857 12.2227H18.6044C18.6038 12.2227 18.6034 12.2228 18.6028 12.2228C18.0829 12.2227 17.6319 12.5908 17.5229 13.1011C17.5221 13.1048 17.5208 13.1084 17.5201 13.1121C17.5145 13.1399 17.5108 13.1682 17.5071 13.1967C17.506 13.2058 17.5041 13.2144 17.5032 13.2234C17.5031 13.2252 17.5026 13.2269 17.5025 13.2286L16.7464 21.0789H3.32943C2.71805 21.0789 2.22266 21.5773 2.22266 22.1922C2.22266 22.807 2.71805 23.3055 3.32943 23.3055H16.5318L15.1735 37.4065H11.2247C10.6133 37.4065 10.1179 37.905 10.1179 38.5198C10.1179 39.1347 10.6133 39.6331 11.2247 39.6331H14.9591L14.2195 47.3106C14.2194 47.3118 14.2194 47.313 14.2192 47.314L13.0757 59.1861C13.0755 59.1874 13.0754 59.1889 13.0753 59.1901L13.0748 59.1944C13.0733 59.2098 13.0735 59.225 13.0726 59.2404C13.0716 59.2609 13.0695 59.2809 13.0695 59.3017C13.0695 59.3026 13.0696 59.3035 13.0696 59.3045C13.0696 59.3332 13.0717 59.3614 13.0738 59.3896C13.0747 59.3986 13.0744 59.4078 13.0754 59.4167C13.0784 59.4455 13.0832 59.4739 13.0884 59.5021C13.0899 59.5104 13.0906 59.5189 13.0922 59.527C13.0965 59.5484 13.1026 59.569 13.1082 59.59C13.112 59.6047 13.1151 59.6197 13.1195 59.6341C13.1209 59.6381 13.1226 59.6419 13.1238 59.6461C13.1774 59.8117 13.2683 59.9605 13.3869 60.0819C13.3891 60.0841 13.3909 60.0866 13.3931 60.0887C13.4049 60.1006 13.4178 60.1113 13.4302 60.1226C13.5065 60.1929 13.5926 60.2526 13.6869 60.2994C13.7066 60.3092 13.7259 60.3194 13.746 60.3279C13.752 60.3305 13.7585 60.3323 13.7647 60.3347C13.7924 60.3458 13.8203 60.3565 13.8491 60.3656C13.8518 60.3663 13.8543 60.3668 13.8569 60.3676C13.8897 60.3774 13.9227 60.386 13.9565 60.393C13.961 60.3939 13.9655 60.3942 13.9698 60.3951C14.002 60.4012 14.0343 60.4064 14.0672 60.4096C14.068 60.4096 14.0685 60.4098 14.0693 60.41C14.1056 60.4135 14.1416 60.4153 14.1773 60.4153C14.1777 60.4153 14.1783 60.4151 14.1789 60.4151H19.106C19.6501 64.5645 23.1866 67.7782 27.458 67.7782C31.7291 67.7782 35.2657 64.5645 35.8097 60.4151H53.5623C54.1065 64.5645 57.6429 67.7782 61.9141 67.7782C66.1853 67.7782 69.7221 64.5645 70.2663 60.4151H75.1946C75.1953 60.4151 75.1962 60.4153 75.1969 60.4153C75.2338 60.4153 75.2701 60.4131 75.3061 60.4095C75.3126 60.4089 75.3188 60.4076 75.3253 60.4068C75.3541 60.4034 75.3827 60.3994 75.4108 60.3938C75.4229 60.3914 75.4345 60.3881 75.4465 60.3853C75.4682 60.3803 75.49 60.3749 75.5112 60.3685C75.5257 60.3642 75.5397 60.3592 75.5539 60.3543C75.572 60.348 75.5902 60.3415 75.608 60.3342C75.6234 60.3282 75.638 60.3215 75.6529 60.3148C75.6691 60.3072 75.6854 60.2995 75.7012 60.2913C75.7162 60.2836 75.7307 60.2756 75.7451 60.2673C75.7603 60.2584 75.7754 60.2492 75.7903 60.2397C75.8042 60.2308 75.818 60.2217 75.8313 60.2122C75.8464 60.2017 75.8607 60.1906 75.8753 60.1793C75.8874 60.1696 75.8997 60.1601 75.9115 60.15C75.9267 60.1371 75.941 60.1236 75.9554 60.1098C75.9655 60.1002 75.9759 60.0907 75.9857 60.0806C76.001 60.0648 76.0156 60.0482 76.0303 60.0314C76.0381 60.0224 76.0462 60.0136 76.0537 60.0044C76.0699 59.9842 76.0847 59.9634 76.0995 59.9425C76.1045 59.9352 76.1101 59.9284 76.115 59.921C76.133 59.8938 76.1499 59.8659 76.1656 59.8371C76.1668 59.8353 76.1679 59.8337 76.1687 59.8318C76.1853 59.8009 76.2007 59.7693 76.2144 59.7366C76.2183 59.7273 76.2212 59.7176 76.2249 59.7083C76.2339 59.6853 76.2428 59.6623 76.2503 59.6384C76.2551 59.6229 76.2587 59.607 76.263 59.5914C76.2678 59.5729 76.273 59.5545 76.2771 59.5356C76.2808 59.5189 76.2832 59.5016 76.286 59.4846C76.2885 59.4696 76.2917 59.4549 76.2937 59.4396C76.3406 59.0614 77.2073 52.067 77.5943 47.5444C77.5948 47.5401 77.5949 47.5356 77.5954 47.5313C77.7068 46.2276 77.7782 45.1297 77.7782 44.4576C77.7782 36.4773 71.3238 29.9847 63.3901 29.9847ZM58.4405 32.2116H62.9684L62.3901 38.8908H57.8622L58.4405 32.2116ZM27.4583 65.5515C24.0322 65.5515 21.2449 62.7477 21.2449 59.3015C21.2449 55.8554 24.0323 53.0516 27.4583 53.0516C30.8843 53.0516 33.6716 55.8554 33.6716 59.3015C33.6716 62.7477 30.8843 65.5515 27.4583 65.5515ZM61.9141 65.5515C58.4882 65.5515 55.701 62.7477 55.701 59.3015C55.701 55.8554 58.4883 53.0516 61.9141 53.0516C65.3403 53.0516 68.1276 55.8554 68.1276 59.3015C68.1276 62.7477 65.3403 65.5515 61.9141 65.5515ZM74.2166 58.1878H70.2666C69.7227 54.0382 66.186 50.8243 61.9144 50.8243C57.6432 50.8243 54.1065 54.0383 53.5626 58.1878H35.8102C35.2662 54.0382 31.7297 50.8243 27.4583 50.8243C23.1869 50.8243 19.6501 54.0383 19.1061 58.1878H15.3956L16.3252 48.5386H56.0119V48.5392C56.0125 48.5392 56.013 48.5392 56.0136 48.5392C56.0506 48.5392 56.0873 48.5371 56.1236 48.5334C56.1304 48.5328 56.1371 48.5313 56.1439 48.5305C56.1728 48.527 56.2016 48.5229 56.2299 48.5172C56.2421 48.5147 56.2541 48.5113 56.2662 48.5083C56.2883 48.503 56.3105 48.4978 56.332 48.4913C56.3468 48.4868 56.3608 48.4815 56.3751 48.4764C56.3937 48.4699 56.4123 48.4635 56.4303 48.4561C56.4458 48.4497 56.4607 48.4426 56.4757 48.4355C56.4921 48.4279 56.5085 48.4203 56.5243 48.412C56.5393 48.404 56.5541 48.3954 56.569 48.3868C56.5842 48.3779 56.5993 48.3688 56.614 48.3593C56.6283 48.3499 56.6419 48.3402 56.6556 48.3304C56.6702 48.32 56.6844 48.3093 56.6986 48.2981C56.7113 48.2879 56.7238 48.2774 56.7362 48.2665C56.7502 48.2544 56.764 48.2419 56.7772 48.229C56.7884 48.2181 56.7997 48.207 56.8106 48.1956C56.8239 48.1816 56.8367 48.1672 56.8494 48.1525C56.8593 48.1409 56.869 48.1294 56.8785 48.1175C56.8907 48.1019 56.9024 48.0859 56.9139 48.0697C56.9226 48.0575 56.931 48.0454 56.9393 48.0329C56.95 48.0161 56.9604 47.9989 56.9702 47.9814C56.9778 47.9683 56.9855 47.9552 56.9922 47.9419C57.0015 47.9244 57.0095 47.9066 57.0179 47.8886C57.0244 47.8742 57.0311 47.8601 57.037 47.8453C57.0442 47.8277 57.0502 47.8098 57.0566 47.7918C57.062 47.7759 57.0678 47.7601 57.0727 47.7437C57.0775 47.7265 57.0815 47.7088 57.0859 47.6913C57.0902 47.6737 57.0949 47.6561 57.0983 47.6382C57.1017 47.6207 57.1038 47.6029 57.1065 47.585C57.1091 47.5666 57.1122 47.5485 57.114 47.5298C57.1143 47.5271 57.1149 47.5246 57.115 47.522L57.6697 41.1168H63.3898C66.7809 41.1168 68.3103 42.8841 69.9293 44.7553C71.2652 46.2993 72.7567 48.0219 75.292 48.4421C74.97 51.8666 74.4495 56.2628 74.2166 58.1878ZM75.4811 46.2111C73.8365 45.8738 72.8246 44.7108 71.5987 43.2941C70.0656 41.5225 68.194 39.3604 64.6061 38.9576L65.1787 32.3449C71.0467 33.2178 75.5647 38.3165 75.5647 44.4579C75.5647 44.8751 75.5337 45.4814 75.4811 46.2111Z" fill="#1F1F1F" stroke="#1F1F1F" stroke-width="0.3"/>
<path d="M23.9004 59.3018C23.9004 57.3243 25.4999 55.7197 27.4586 55.7197C29.4173 55.7197 31.0167 57.3244 31.0167 59.3018C31.0167 61.2794 29.4173 62.8839 27.4586 62.8839C25.4999 62.8839 23.9004 61.2794 23.9004 59.3018ZM25.1139 59.3018C25.1139 60.5984 26.1625 61.6573 27.4586 61.6573C28.7545 61.6573 29.8032 60.5984 29.8032 59.3018C29.8032 58.0053 28.7547 56.9463 27.4586 56.9463C26.1625 56.9463 25.1139 58.0053 25.1139 59.3018Z" fill="#1F1F1F" stroke="#1F1F1F"/>
<path d="M58.3574 59.3018C58.3574 57.3243 59.9569 55.7197 61.9156 55.7197C63.8743 55.7197 65.4738 57.3244 65.4738 59.3018C65.4738 61.2794 63.8743 62.8839 61.9156 62.8839C59.9569 62.8839 58.3574 61.2794 58.3574 59.3018ZM59.571 59.3018C59.571 60.5984 60.6195 61.6573 61.9156 61.6573C63.2117 61.6573 64.2602 60.5984 64.2602 59.3018C64.2602 58.0053 63.2117 56.9463 61.9156 56.9463C60.6195 56.9463 59.571 58.0053 59.571 59.3018Z" fill="#1F1F1F" stroke="#1F1F1F"/>
<path d="M12.7012 29.9844H7.29037C6.67899 29.9844 6.18359 30.4828 6.18359 31.0977C6.18359 31.7125 6.67899 32.211 7.29037 32.211H12.7012C13.3126 32.211 13.8079 31.7125 13.8079 31.0977C13.8079 30.4828 13.3126 29.9844 12.7012 29.9844Z" fill="#1F1F1F" stroke="#1F1F1F" stroke-width="0.3"/>
</svg>
