<svg width="80" height="16" viewBox="0 0 80 16" fill="none" xmlns="http://www.w3.org/2000/svg">
<path fill-rule="evenodd" clip-rule="evenodd" d="M4.44458 9.42195L1.86761 7.28869C1.38123 6.89973 1.59455 6.11753 2.21177 6.02936L5.86675 5.86652L7.42758 1.95342C7.53638 1.73653 7.75753 1.60001 8.00001 1.60001C8.24249 1.60001 8.46363 1.73725 8.57243 1.95342L10.1333 5.86652L13.7882 6.02936C14.4055 6.11753 14.6188 6.89973 14.1324 7.28869L11.5554 9.42195L12.2587 13.5868C12.3398 14.1549 11.7496 14.5802 11.2369 14.3235L8.00001 12.2663L4.76315 14.3228C4.24974 14.5795 3.66025 14.1542 3.74132 13.5861L4.44458 9.42195Z" fill="#ECB018"/>
<path fill-rule="evenodd" clip-rule="evenodd" d="M36.4446 9.42195L33.8676 7.28869C33.3812 6.89973 33.5946 6.11753 34.2118 6.02936L37.8668 5.86652L39.4276 1.95342C39.5364 1.73653 39.7575 1.60001 40 1.60001C40.2425 1.60001 40.4636 1.73725 40.5724 1.95342L42.1333 5.86652L45.7882 6.02936C46.4055 6.11753 46.6188 6.89973 46.1324 7.28869L43.5554 9.42195L44.2587 13.5868C44.3398 14.1549 43.7496 14.5802 43.2369 14.3235L40 12.2663L36.7631 14.3228C36.2497 14.5795 35.6603 14.1542 35.7413 13.5861L36.4446 9.42195Z" fill="#ECB018"/>
<path fill-rule="evenodd" clip-rule="evenodd" d="M20.4446 9.42195L17.8676 7.28869C17.3812 6.89973 17.5946 6.11753 18.2118 6.02936L21.8668 5.86652L23.4276 1.95342C23.5364 1.73653 23.7575 1.60001 24 1.60001C24.2425 1.60001 24.4636 1.73725 24.5724 1.95342L26.1333 5.86652L29.7882 6.02936C30.4055 6.11753 30.6188 6.89973 30.1324 7.28869L27.5554 9.42195L28.2587 13.5868C28.3398 14.1549 27.7496 14.5802 27.2369 14.3235L24 12.2663L20.7631 14.3228C20.2497 14.5795 19.6603 14.1542 19.7413 13.5861L20.4446 9.42195Z" fill="#ECB018"/>
<path fill-rule="evenodd" clip-rule="evenodd" d="M52.4446 9.42195L49.8676 7.28869C49.3812 6.89973 49.5946 6.11753 50.2118 6.02936L53.8668 5.86652L55.4276 1.95342C55.5364 1.73653 55.7575 1.60001 56 1.60001C56.2425 1.60001 56.4636 1.73725 56.5724 1.95342L58.1333 5.86652L61.7882 6.02936C62.4055 6.11753 62.6188 6.89973 62.1324 7.28869L59.5554 9.42195L60.2587 13.5868C60.3398 14.1549 59.7496 14.5802 59.2369 14.3235L56 12.2663L52.7631 14.3228C52.2497 14.5795 51.6603 14.1542 51.7413 13.5861L52.4446 9.42195Z" fill="#ECB018"/>
<path fill-rule="evenodd" clip-rule="evenodd" d="M68.4446 9.42195L65.8676 7.28869C65.3812 6.89973 65.5946 6.11753 66.2118 6.02936L69.8668 5.86652L71.4276 1.95342C71.5364 1.73653 71.7575 1.60001 72 1.60001C72.2425 1.60001 72.4636 1.73725 72.5724 1.95342L74.1333 5.86652L77.7882 6.02936C78.4055 6.11753 78.6188 6.89973 78.1324 7.28869L75.5554 9.42195L76.2587 13.5868C76.3398 14.1549 75.7496 14.5802 75.2369 14.3235L72 12.2663L68.7631 14.3228C68.2497 14.5795 67.6603 14.1542 67.7413 13.5861L68.4446 9.42195Z" fill="#ECB018"/>
</svg>
