<svg width="25" height="24" viewBox="0 0 25 24" fill="none" xmlns="http://www.w3.org/2000/svg">
<path d="M20.2268 8.68707C20.239 8.85762 20.239 9.02821 20.239 9.19876C20.239 14.4008 16.2796 20.3947 9.04303 20.3947C6.81357 20.3947 4.74251 19.749 3.00037 18.6282C3.31713 18.6648 3.62167 18.677 3.95062 18.677C5.79019 18.677 7.48362 18.0557 8.83591 16.9958C7.10596 16.9592 5.6562 15.8262 5.1567 14.2668C5.40038 14.3033 5.64401 14.3277 5.89988 14.3277C6.25317 14.3277 6.60649 14.2789 6.93541 14.1937C5.13236 13.8282 3.78003 12.2444 3.78003 10.3318V10.283C4.30387 10.5754 4.91306 10.7582 5.5587 10.7825C4.4988 10.0759 3.80441 8.86981 3.80441 7.50533C3.80441 6.77438 3.9993 6.10432 4.34043 5.51955C6.2775 7.90737 9.1892 9.46674 12.4542 9.63732C12.3933 9.34494 12.3567 9.0404 12.3567 8.73582C12.3567 6.56726 14.111 4.80078 16.2917 4.80078C17.4247 4.80078 18.4481 5.27591 19.1669 6.04342C20.0562 5.87287 20.909 5.54392 21.6643 5.09317C21.3719 6.0069 20.7506 6.77441 19.9344 7.26169C20.7263 7.17645 21.4938 6.95711 22.2004 6.65258C21.6644 7.43224 20.9943 8.12663 20.2268 8.68707Z" fill="#1F1F1F"/>
</svg>
