<svg width="16" height="14" viewBox="0 0 16 14" fill="none" xmlns="http://www.w3.org/2000/svg">
<path d="M11.6102 0.100403C10.1858 0.100403 8.93862 0.712946 8.16122 1.74834C7.38381 0.712946 6.13665 0.100403 4.71221 0.100403C3.57833 0.101681 2.49126 0.552678 1.68949 1.35445C0.887719 2.15622 0.436722 3.24329 0.435444 4.37717C0.435444 9.20578 7.59489 13.1142 7.89978 13.2756C7.98014 13.3188 8.06997 13.3415 8.16122 13.3415C8.25247 13.3415 8.34229 13.3188 8.42265 13.2756C8.72754 13.1142 15.887 9.20578 15.887 4.37717C15.8857 3.24329 15.4347 2.15622 14.6329 1.35445C13.8312 0.552678 12.7441 0.101681 11.6102 0.100403ZM8.16122 12.1581C6.90164 11.4242 1.53913 8.08071 1.53913 4.37717C1.54022 3.53595 1.87488 2.7295 2.46971 2.13467C3.06454 1.53984 3.87099 1.20518 4.71221 1.20408C6.05388 1.20408 7.18032 1.91872 7.65077 3.06655C7.69234 3.16776 7.76307 3.25433 7.85396 3.31526C7.94485 3.37618 8.0518 3.40871 8.16122 3.40871C8.27064 3.40871 8.37759 3.37618 8.46848 3.31526C8.55937 3.25433 8.63009 3.16776 8.67167 3.06655C9.14212 1.91665 10.2686 1.20408 11.6102 1.20408C12.4514 1.20518 13.2579 1.53984 13.8527 2.13467C14.4476 2.7295 14.7822 3.53595 14.7833 4.37717C14.7833 8.0752 9.41942 11.4235 8.16122 12.1581Z" fill="#696C70"/>
</svg>
