<svg width="25" height="24" viewBox="0 0 25 24" fill="none" xmlns="http://www.w3.org/2000/svg">
<path d="M21.7992 6.91307C21.5783 6.08163 20.9277 5.42681 20.1017 5.20459C18.6044 4.80078 12.6004 4.80078 12.6004 4.80078C12.6004 4.80078 6.59639 4.80078 5.09905 5.20459C4.27299 5.42684 3.62238 6.08163 3.40157 6.91307C3.00037 8.42011 3.00037 11.5644 3.00037 11.5644C3.00037 11.5644 3.00037 14.7087 3.40157 16.2158C3.62238 17.0472 4.27299 17.6747 5.09905 17.897C6.59639 18.3008 12.6004 18.3008 12.6004 18.3008C12.6004 18.3008 18.6043 18.3008 20.1017 17.897C20.9277 17.6747 21.5783 17.0472 21.7992 16.2158C22.2004 14.7087 22.2004 11.5644 22.2004 11.5644C22.2004 11.5644 22.2004 8.42011 21.7992 6.91307ZM10.6367 14.4192V8.70962L15.6549 11.5645L10.6367 14.4192Z" fill="#1F1F1F"/>
</svg>
